<?xml version="1.0" encoding="UTF-8" standalone="no"?>
<!-- Generator: Adobe Illustrator 17.0.0, SVG Export Plug-In . SVG Version: 6.00 Build 0)  -->

<svg
   xmlns:dc="http://purl.org/dc/elements/1.1/"
   xmlns:cc="http://creativecommons.org/ns#"
   xmlns:rdf="http://www.w3.org/1999/02/22-rdf-syntax-ns#"
   xmlns:svg="http://www.w3.org/2000/svg"
   xmlns="http://www.w3.org/2000/svg"
   xmlns:sodipodi="http://sodipodi.sourceforge.net/DTD/sodipodi-0.dtd"
   xmlns:inkscape="http://www.inkscape.org/namespaces/inkscape"
   version="1.0"
   id="Layer_1"
   x="0px"
   y="0px"
   width="430"
   height="170"
   viewBox="0 0 429.99999 169.99999"
   enable-background="new 0 0 841.89 595.28"
   xml:space="preserve"
   inkscape:version="0.48.4 r9939"
   sodipodi:docname="Pelagios co-brand.svg"><metadata
     id="metadata123"><rdf:RDF><cc:Work
         rdf:about=""><dc:format>image/svg+xml</dc:format><dc:type
           rdf:resource="http://purl.org/dc/dcmitype/StillImage" /><dc:title></dc:title></cc:Work></rdf:RDF></metadata><defs
     id="defs121" /><sodipodi:namedview
     pagecolor="#ffffff"
     bordercolor="#666666"
     borderopacity="1"
     objecttolerance="10"
     gridtolerance="10"
     guidetolerance="10"
     inkscape:pageopacity="0"
     inkscape:pageshadow="2"
     inkscape:window-width="1280"
     inkscape:window-height="999"
     id="namedview119"
     showgrid="false"
     inkscape:zoom="1.1213358"
     inkscape:cx="334.29678"
     inkscape:cy="158.32777"
     inkscape:window-x="1920"
     inkscape:window-y="8"
     inkscape:window-maximized="1"
     inkscape:current-layer="Layer_1" /><g
     id="g3161"
     transform="translate(-5.3507611,-427.28002)"><path
       d="m 403.70479,556.52996 c 0,0 4.956,5.947 14.95,5.947 7.598,0 13.215,-4.543 13.215,-11.151 0,-13.71 -22.714,-10.489 -22.714,-21.226 0,-5.369 4.625,-7.516 9.333,-7.516 7.021,0 10.407,3.881 10.407,3.881 l 2.065,-2.808 c 0,0 -3.799,-4.461 -12.224,-4.461 -7.02,0 -13.215,3.799 -13.215,11.151 0,13.462 22.713,10.49 22.713,20.979 0,5.121 -4.46,7.764 -9.498,7.764 -8.176,0 -12.801,-5.203 -12.801,-5.203 l -2.231,2.643 z m -42.122,-15.941 c 0,-10.241 7.929,-18.005 17.757,-18.005 9.828,0 17.758,7.764 17.758,18.005 0,10.49 -7.93,18.501 -17.758,18.501 -9.828,0 -17.757,-8.011 -17.757,-18.501 m -3.635,0 c 0,12.307 9.581,21.888 21.392,21.888 11.811,0 21.392,-9.581 21.392,-21.888 0,-12.059 -9.581,-21.392 -21.392,-21.392 -11.811,0 -21.392,9.333 -21.392,21.392 m -10.166,20.897 h 3.469 v -41.297 h -3.469 v 41.297 z m -0.331,-51.787 h 4.13 v -6.029 h -4.13 v 6.029 z m -24.648,48.401 c -8.837,0 -14.949,-6.773 -14.949,-17.923 0,-11.151 5.285,-17.592 14.124,-17.592 8.094,0 14.371,4.295 14.371,17.592 0,13.379 -6.277,17.923 -13.546,17.923 m -13.298,14.454 -1.652,3.056 c 4.047,2.065 8.425,3.221 12.967,3.221 9.829,0 18.914,-4.956 18.914,-17.592 v -41.049 h -3.469 v 5.534 c 0,0.991 0.249,1.569 0.249,1.569 h -0.166 c 0,0 -2.643,-8.094 -14.371,-8.094 -10.737,0 -17.758,8.094 -17.758,20.98 0,12.884 7.599,21.309 18.336,21.309 6.855,0 11.398,-3.386 13.876,-8.425 h 0.165 c 0,0 -0.331,1.487 -0.331,3.386 v 4.791 c 0,9.994 -6.855,14.206 -15.692,14.206 -5.947,-0.002 -11.068,-2.892 -11.068,-2.892 m -40.445,-22.301 c 0,-10.737 15.032,-10.737 22.053,-10.737 h 2.643 v 2.23 c 0,8.177 -5.121,17.511 -14.124,17.511 -7.02,-0.001 -10.572,-4.626 -10.572,-9.004 m -3.634,0.248 c 0,8.259 7.35,11.977 14.041,11.977 10.737,0 14.537,-10.159 14.454,-10.159 h 0.166 c 0,0 -0.331,1.487 -0.331,3.717 v 5.451 h 3.469 v -26.68 c 0,-10.324 -5.121,-15.61 -14.62,-15.61 -9.002,0 -13.958,4.543 -13.958,4.543 l 1.982,2.808 c 0,0 4.625,-3.964 11.811,-3.964 6.607,0 11.316,3.138 11.316,12.306 v 1.404 h -2.726 c -7.35,0 -25.604,0.166 -25.604,14.207 m -14.371,2.643 c 0,7.764 5.699,8.672 8.094,8.672 0.743,0 1.487,-0.166 1.487,-0.166 v -3.22 c 0,0 -0.578,0.082 -1.239,0.082 -1.899,0 -4.873,-0.66 -4.873,-6.442 v -48.401 h -3.469 v 49.475 z m -40.14,-16.106 c 1.486,-9.664 8.507,-14.62 16.106,-14.62 6.855,0 12.884,4.543 13.298,14.62 h -29.404 z m -3.882,3.881 c 0,13.133 9.664,21.558 21.309,21.558 8.92,0 14.702,-5.7 14.702,-5.7 l -1.899,-2.891 c 0,0 -4.873,5.203 -12.802,5.203 -9.581,0 -17.675,-6.855 -17.675,-18.831 h 33.12 c 0,0 0.165,-1.322 0.165,-2.231 0,-9.993 -5.616,-18.832 -16.849,-18.832 -10.573,0.002 -20.071,7.767 -20.071,21.724 m -34.928,-6.69 v -27.255 h 15.28 c 8.425,0 14.041,4.873 14.041,13.545 0,8.672 -5.616,13.71 -14.041,13.71 h -15.28 z m -3.552,27.257 h 3.552 v -23.952 h 15.445 c 10.076,0 17.592,-6.525 17.592,-17.014 0,-10.49 -7.516,-16.85 -17.592,-16.85 h -18.996 v 57.816 z"
       id="path5"
       inkscape:connector-curvature="0"
       style="fill:#ffffff" /><g
       transform="translate(-204.31221,209.35696)"
       id="g7"><circle
         cx="284.14899"
         cy="293.58099"
         r="69.82"
         id="circle9"
         d="m 353.96899,293.58099 c 0,38.56052 -31.25948,69.82 -69.82,69.82 -38.56052,0 -69.82,-31.25948 -69.82,-69.82 0,-38.56052 31.25948,-69.82 69.82,-69.82 38.56052,0 69.82,31.25948 69.82,69.82 z"
         sodipodi:cx="284.14899"
         sodipodi:cy="293.58099"
         sodipodi:rx="69.82"
         sodipodi:ry="69.82"
         style="fill:none;stroke:#ffffff;stroke-width:2.66109991" /><line
         x1="262.543"
         y1="346.435"
         x2="257.77399"
         y2="358.035"
         id="line11"
         style="fill:none;stroke:#ffffff;stroke-width:1.32910001" /><line
         x1="310.77499"
         y1="229.127"
         x2="306.00601"
         y2="240.72701"
         id="line13"
         style="fill:none;stroke:#ffffff;stroke-width:1.32910001" /><line
         x1="337.129"
         y1="315.31201"
         x2="348.729"
         y2="320.08099"
         id="line15"
         style="fill:none;stroke:#ffffff;stroke-width:1.32910001" /><line
         x1="219.819"
         y1="267.08099"
         x2="231.41901"
         y2="271.85001"
         id="line17"
         style="fill:none;stroke:#ffffff;stroke-width:1.32910001" /><rect
         x="243.964"
         y="253.27299"
         transform="matrix(0.3851,0.9229,-0.9229,0.3851,445.7408,-81.825)"
         width="80.619003"
         height="80.617996"
         id="rect19"
         style="fill:none;stroke:#ffffff;stroke-width:1.32910001" /><g
         id="g21"><line
           x1="284.173"
           y1="249.30099"
           x2="284.17001"
           y2="223.63699"
           id="line23"
           style="fill:none;stroke:#ffffff;stroke-width:1.32910001" /></g><line
         x1="253.673"
         y1="263.34698"
         x2="235.02901"
         y2="244.46899"
         id="line25"
         style="fill:none;stroke:#ffffff;stroke-width:1.32910001" /><line
         x1="333.38901"
         y1="244.33701"
         x2="315.56699"
         y2="262.31201"
         id="line27"
         style="fill:none;stroke:#ffffff;stroke-width:1.32910001" /><g
         id="g29"><line
           x1="240.104"
           y1="293.604"
           x2="214.832"
           y2="293.604"
           id="line31"
           style="fill:none;stroke:#ffffff;stroke-width:1.32910001" /></g><rect
         x="243.966"
         y="253.272"
         transform="matrix(0.9249,0.3803,-0.3803,0.9249,132.9936,-86.0453)"
         width="80.619003"
         height="80.617996"
         id="rect33"
         style="fill:none;stroke:#ffffff;stroke-width:1.32910001" /><line
         x1="306.28101"
         y1="346.32199"
         x2="311.11099"
         y2="357.897"
         id="line35"
         style="fill:none;stroke:#ffffff;stroke-width:1.32910001" /><line
         x1="257.436"
         y1="229.267"
         x2="262.26599"
         y2="240.842"
         id="line37"
         style="fill:none;stroke:#ffffff;stroke-width:1.32910001" /><line
         x1="337.01401"
         y1="271.57401"
         x2="348.59"
         y2="266.74399"
         id="line39"
         style="fill:none;stroke:#ffffff;stroke-width:1.32910001" /><line
         x1="219.96001"
         y1="320.41901"
         x2="231.535"
         y2="315.58899"
         id="line41"
         style="fill:none;stroke:#ffffff;stroke-width:1.32910001" /><line
         x1="284.32901"
         y1="336.60901"
         x2="284.32901"
         y2="363.48801"
         id="line43"
         style="fill:none;stroke:#ffffff;stroke-width:1.32910001" /><line
         x1="333.51801"
         y1="342.69601"
         x2="314.87399"
         y2="323.81699"
         id="line45"
         style="fill:none;stroke:#ffffff;stroke-width:1.32910001" /><line
         x1="253.377"
         y1="325.01199"
         x2="235.161"
         y2="342.82599"
         id="line47"
         style="fill:none;stroke:#ffffff;stroke-width:1.32910001" /><line
         x1="353.82901"
         y1="293.604"
         x2="328.55701"
         y2="293.604"
         id="line49"
         style="fill:none;stroke:#ffffff;stroke-width:1.32910001" /><line
         x1="231.437"
         y1="272.18301"
         x2="235.03"
         y2="244.468"
         id="line51"
         style="fill:none;stroke:#ffffff;stroke-width:1.32910001" /><g
         id="g53"><line
           x1="231.437"
           y1="272.18301"
           x2="215"
           y2="293.73901"
           id="line55"
           style="fill:none;stroke:#ffffff;stroke-width:1.32910001" /><line
           x1="231.535"
           y1="315.59"
           x2="214.99899"
           y2="293.73901"
           id="line57"
           style="fill:none;stroke:#ffffff;stroke-width:1.32910001" /></g><line
         x1="231.535"
         y1="315.59"
         x2="235.16"
         y2="342.82599"
         id="line59"
         style="fill:none;stroke:#ffffff;stroke-width:1.32910001" /><line
         x1="261.92999"
         y1="346.03"
         x2="235.16"
         y2="342.82599"
         id="line61"
         style="fill:none;stroke:#ffffff;stroke-width:1.32910001" /><line
         x1="261.92999"
         y1="346.03"
         x2="284.54599"
         y2="363.13101"
         id="line63"
         style="fill:none;stroke:#ffffff;stroke-width:1.32910001" /><line
         x1="306.28201"
         y1="346.32101"
         x2="284.54599"
         y2="363.13101"
         id="line65"
         style="fill:none;stroke:#ffffff;stroke-width:1.32910001" /><line
         x1="306.28201"
         y1="346.32101"
         x2="333.40399"
         y2="342.422"
         id="line67"
         style="fill:none;stroke:#ffffff;stroke-width:1.32910001" /><line
         x1="336.72299"
         y1="315.92599"
         x2="333.40399"
         y2="342.42099"
         id="line69"
         style="fill:none;stroke:#ffffff;stroke-width:1.32910001" /><line
         x1="336.72299"
         y1="315.92599"
         x2="352.88199"
         y2="293.702"
         id="line71"
         style="fill:none;stroke:#ffffff;stroke-width:1.32910001" /><line
         x1="337.01401"
         y1="271.57501"
         x2="352.88199"
         y2="293.702"
         id="line73"
         style="fill:none;stroke:#ffffff;stroke-width:1.32910001" /><line
         x1="337.01401"
         y1="271.57501"
         x2="333.38901"
         y2="244.33701"
         id="line75"
         style="fill:none;stroke:#ffffff;stroke-width:1.32910001" /><line
         x1="306.504"
         y1="240.85899"
         x2="333.38901"
         y2="244.33701"
         id="line77"
         style="fill:none;stroke:#ffffff;stroke-width:1.32910001" /><g
         id="g79"><line
           x1="306.504"
           y1="240.85899"
           x2="284.00201"
           y2="224.032"
           id="line81"
           style="fill:none;stroke:#ffffff;stroke-width:1.32910001" /><line
           x1="262.67099"
           y1="241.039"
           x2="284.00201"
           y2="224.033"
           id="line83"
           style="fill:none;stroke:#ffffff;stroke-width:1.32910001" /></g><line
         x1="262.67099"
         y1="241.039"
         x2="235.03"
         y2="244.468"
         id="line85"
         style="fill:none;stroke:#ffffff;stroke-width:1.32910001" /></g><path
       d="m 289.52979,588.63396 c 0,0 1.954,2.229 5.68,2.229 3.083,0 5.251,-1.801 5.251,-4.305 0,-5.069 -8.274,-4.153 -8.274,-7.542 0,-1.711 1.496,-2.382 3.053,-2.382 2.534,0 3.847,1.404 3.847,1.404 l 0.947,-1.588 c 0,0 -1.496,-1.68 -4.732,-1.68 -2.779,0 -5.252,1.497 -5.252,4.245 0,5.008 8.275,4.183 8.275,7.542 0,1.618 -1.435,2.442 -3.085,2.442 -2.87,0 -4.579,-1.862 -4.579,-1.862 l -1.131,1.497 z m -15.975,1.862 h 2.076 v -7.358 c 0,-0.733 0.062,-1.435 0.245,-2.077 0.702,-2.534 2.962,-4.336 5.588,-4.336 2.962,0 3.328,2.138 3.328,4.55 v 9.221 h 2.076 v -9.771 c 0,-3.786 -1.343,-5.954 -5.13,-5.954 -3.634,0 -5.588,2.473 -6.137,3.878 h -0.061 c 0,0 0.061,-0.55 0.061,-1.221 v -2.291 h -2.046 v 15.359 z m -17.184,-7.756 c 0,-3.481 2.687,-6.076 5.984,-6.076 3.298,0 5.984,2.595 5.984,6.076 0,3.573 -2.686,6.26 -5.984,6.26 -3.297,0 -5.984,-2.687 -5.984,-6.26 z m -2.138,0 c 0,4.641 3.634,8.122 8.122,8.122 4.488,0 8.122,-3.481 8.122,-8.122 0,-4.549 -3.634,-7.969 -8.122,-7.969 -4.488,0 -8.122,3.42 -8.122,7.969 z m -26.109,7.756 h 2.076 v -7.266 c 0,-0.703 0.062,-1.405 0.214,-2.046 0.642,-2.352 2.534,-4.519 5.039,-4.519 2.901,0 3.236,2.26 3.236,4.58 v 9.252 h 2.077 v -7.266 c 0,-0.825 0.061,-1.558 0.275,-2.23 0.58,-2.26 2.503,-4.336 4.855,-4.336 2.809,0 3.328,2.076 3.328,4.58 v 9.252 h 2.076 v -9.771 c 0,-3.786 -1.374,-5.954 -5.1,-5.954 -2.595,0 -4.824,1.771 -5.649,3.847 h -0.061 c -0.457,-2.534 -1.923,-3.847 -4.763,-3.847 -2.382,0 -4.824,1.801 -5.557,3.878 h -0.061 c 0,0 0.061,-0.55 0.061,-1.221 v -2.291 h -2.046 v 15.358 z m -27.154,0 h 2.076 v -7.266 c 0,-0.703 0.062,-1.405 0.215,-2.046 0.641,-2.352 2.534,-4.519 5.038,-4.519 2.901,0 3.236,2.26 3.236,4.58 v 9.252 h 2.077 v -7.266 c 0,-0.825 0.061,-1.558 0.275,-2.23 0.58,-2.26 2.503,-4.336 4.855,-4.336 2.809,0 3.328,2.076 3.328,4.58 v 9.252 h 2.076 v -9.771 c 0,-3.786 -1.374,-5.954 -5.099,-5.954 -2.596,0 -4.825,1.771 -5.649,3.847 h -0.062 c -0.457,-2.534 -1.923,-3.847 -4.763,-3.847 -2.382,0 -4.824,1.801 -5.557,3.878 h -0.061 c 0,0 0.061,-0.55 0.061,-1.221 v -2.291 h -2.046 v 15.358 z m -17.184,-7.756 c 0,-3.481 2.687,-6.076 5.984,-6.076 3.298,0 5.985,2.595 5.985,6.076 0,3.573 -2.687,6.26 -5.985,6.26 -3.297,0 -5.984,-2.687 -5.984,-6.26 z m -2.138,0 c 0,4.641 3.634,8.122 8.122,8.122 4.488,0 8.122,-3.481 8.122,-8.122 0,-4.549 -3.634,-7.969 -8.122,-7.969 -4.488,0 -8.122,3.42 -8.122,7.969 z m -15.227,0.092 c 0,4.763 3.512,8.03 8.061,8.03 3.908,0 5.984,-2.413 5.984,-2.413 l -0.947,-1.618 c 0,0 -1.801,2.168 -4.916,2.168 -3.389,0 -6.046,-2.565 -6.046,-6.168 0,-3.664 2.626,-6.168 5.985,-6.168 2.778,0 4.489,1.862 4.489,1.862 l 1.068,-1.557 c 0,0 -1.862,-2.199 -5.618,-2.199 -4.518,0.002 -8.06,3.33 -8.06,8.063 z"
       id="path87"
       inkscape:connector-curvature="0"
       style="fill:#ffffff;stroke:#ffffff;stroke-width:0.2886" /><g
       transform="matrix(1.390844,0,0,1.390844,-350.2209,119.1856)"
       id="g89"><path
         d="m 380.003,261.494 h -4.257 l -1.121,3.25 h -1.633 l 4.066,-11.301 h 1.665 l 4.065,11.301 h -1.648 l -1.137,-3.25 z m -2.128,-6.498 c 0,0 -0.256,1.024 -0.448,1.601 l -1.265,3.585 h 3.425 l -1.249,-3.585 c -0.192,-0.576 -0.432,-1.601 -0.432,-1.601 h -0.031 z"
         id="path91"
         inkscape:connector-curvature="0"
         style="fill:#ffffff" /><path
         d="m 385.553,253.443 h 1.569 l 5.026,7.347 c 0.416,0.608 0.944,1.633 0.944,1.633 h 0.032 c 0,0 -0.112,-1.008 -0.112,-1.633 v -7.347 h 1.584 v 11.301 h -1.552 l -5.042,-7.331 c -0.417,-0.624 -0.945,-1.648 -0.945,-1.648 h -0.032 c 0,0 0.112,1.008 0.112,1.648 v 7.331 h -1.584 v -11.301 z"
         id="path93"
         inkscape:connector-curvature="0"
         style="fill:#ffffff" /><path
         d="m 405.905,253.443 h 1.584 v 11.301 h -1.584 v -11.301 z"
         id="path95"
         inkscape:connector-curvature="0"
         style="fill:#ffffff" /><path
         d="m 411.665,253.443 h 1.569 l 5.026,7.347 c 0.416,0.608 0.944,1.633 0.944,1.633 h 0.032 c 0,0 -0.112,-1.008 -0.112,-1.633 v -7.347 h 1.585 v 11.301 h -1.553 l -5.042,-7.331 c -0.417,-0.624 -0.945,-1.648 -0.945,-1.648 h -0.032 c 0,0 0.112,1.008 0.112,1.648 v 7.331 h -1.584 v -11.301 z"
         id="path97"
         inkscape:connector-curvature="0"
         style="fill:#ffffff" /><path
         d="m 424.882,253.443 h 1.584 v 11.301 h -1.584 v -11.301 z"
         id="path99"
         inkscape:connector-curvature="0"
         style="fill:#ffffff" /><path
         d="m 433.058,254.82 h -3.873 v -1.377 h 9.332 v 1.377 h -3.874 v 9.924 h -1.585 v -9.924 z"
         id="path101"
         inkscape:connector-curvature="0"
         style="fill:#ffffff" /><path
         d="m 441.233,253.443 h 1.584 v 11.301 h -1.584 v -11.301 z"
         id="path103"
         inkscape:connector-curvature="0"
         style="fill:#ffffff" /><path
         d="m 452.595,261.494 h -4.258 l -1.12,3.25 h -1.633 l 4.065,-11.301 h 1.665 l 4.065,11.301 h -1.648 l -1.136,-3.25 z m -2.129,-6.498 c 0,0 -0.256,1.024 -0.448,1.601 l -1.265,3.585 h 3.426 l -1.248,-3.585 c -0.192,-0.576 -0.433,-1.601 -0.433,-1.601 h -0.032 z"
         id="path105"
         inkscape:connector-curvature="0"
         style="fill:#ffffff" /><path
         d="m 460.561,254.82 h -3.873 v -1.377 h 9.332 v 1.377 h -3.874 v 9.924 h -1.585 v -9.924 z"
         id="path107"
         inkscape:connector-curvature="0"
         style="fill:#ffffff" /><path
         d="m 468.735,253.443 h 1.585 v 11.301 h -1.585 v -11.301 z"
         id="path109"
         inkscape:connector-curvature="0"
         style="fill:#ffffff" /><path
         d="m 473.055,253.443 h 1.713 l 2.802,7.987 c 0.208,0.608 0.432,1.553 0.432,1.553 h 0.032 c 0,0 0.224,-0.944 0.432,-1.553 l 2.834,-7.987 h 1.681 l -4.162,11.301 h -1.585 l -4.179,-11.301 z"
         id="path111"
         inkscape:connector-curvature="0"
         style="fill:#ffffff" /><path
         d="m 485.712,253.443 h 6.562 v 1.377 h -4.979 v 3.537 h 4.05 v 1.376 h -4.05 v 3.634 h 5.25 v 1.376 h -6.834 v -11.3 z"
         id="path113"
         inkscape:connector-curvature="0"
         style="fill:#ffffff" /><path
         d="m 508.162,253.251 c 3.265,0 5.794,2.513 5.794,5.762 0,3.33 -2.529,5.922 -5.794,5.922 -3.266,0 -5.811,-2.593 -5.811,-5.922 10e-4,-3.249 2.545,-5.762 5.811,-5.762 z m 0,10.228 c 2.305,0 4.161,-1.92 4.161,-4.466 0,-2.465 -1.856,-4.322 -4.161,-4.322 -2.306,0 -4.178,1.857 -4.178,4.322 0,2.546 1.872,4.466 4.178,4.466 z"
         id="path115"
         inkscape:connector-curvature="0"
         style="fill:#ffffff" /><path
         d="m 517.358,253.443 h 6.227 v 1.377 h -4.642 v 3.713 h 3.954 v 1.376 h -3.954 v 4.834 h -1.585 v -11.3 z"
         id="path117"
         inkscape:connector-curvature="0"
         style="fill:#ffffff" /></g></g></svg>