<?xml version="1.0" encoding="UTF-8" standalone="no"?>
<!-- Created with Inkscape (http://www.inkscape.org/) -->

<svg
   xmlns:dc="http://purl.org/dc/elements/1.1/"
   xmlns:cc="http://creativecommons.org/ns#"
   xmlns:rdf="http://www.w3.org/1999/02/22-rdf-syntax-ns#"
   xmlns:svg="http://www.w3.org/2000/svg"
   xmlns="http://www.w3.org/2000/svg"
   xmlns:sodipodi="http://sodipodi.sourceforge.net/DTD/sodipodi-0.dtd"
   xmlns:inkscape="http://www.inkscape.org/namespaces/inkscape"
   version="1.0"
   width="750"
   height="240"
   viewBox="0 0 749.99999 239.99999"
   id="Layer_1"
   xml:space="preserve"
   inkscape:version="0.91 r13725"
   sodipodi:docname="recogito-logo.svg"><sodipodi:namedview
     pagecolor="#ffffff"
     bordercolor="#666666"
     borderopacity="1"
     objecttolerance="10"
     gridtolerance="10"
     guidetolerance="10"
     inkscape:pageopacity="0"
     inkscape:pageshadow="2"
     inkscape:window-width="1920"
     inkscape:window-height="1142"
     id="namedview72"
     showgrid="false"
     inkscape:zoom="2.6474078"
     inkscape:cx="446.18838"
     inkscape:cy="114.02737"
     inkscape:window-x="1920"
     inkscape:window-y="30"
     inkscape:window-maximized="1"
     inkscape:current-layer="g3562" /><metadata
     id="metadata43"><rdf:RDF><cc:Work
         rdf:about=""><dc:format>image/svg+xml</dc:format><dc:type
           rdf:resource="http://purl.org/dc/dcmitype/StillImage" /><dc:title /></cc:Work></rdf:RDF></metadata><defs
     id="defs41" /><g
     transform="translate(-202.97265,-53.0254)"
     id="g3"><path
       d="m 267.148,146.78 h 17.013 c 5.395,0 8.133,0.581 10.457,1.743 4.813,2.406 8.05,7.303 8.05,13.942 0,8.299 -4.813,14.523 -11.619,16.018 v 0.166 c 0,0 0.581,0.664 1.328,2.075 l 13.03,24.15 h -4.232 l -13.777,-25.728 h -16.682 v 25.728 h -3.568 V 146.78 z m 19.337,29.047 c 7.635,0 12.449,-5.478 12.449,-13.361 0,-5.146 -2.573,-9.295 -6.806,-11.204 -1.66,-0.747 -3.485,-1.162 -8.133,-1.162 h -13.279 v 25.728 h 15.769 z"
       id="path5"
       style="fill:#213563" /><path
       d="m 327.565,162.383 c 11.287,0 16.93,8.88 16.93,18.922 0,0.913 -0.166,2.241 -0.166,2.241 h -33.28 c 0,12.034 8.133,18.922 17.76,18.922 7.967,0 12.864,-5.229 12.864,-5.229 l 1.909,2.905 c 0,0 -5.81,5.727 -14.773,5.727 -11.702,0 -21.412,-8.466 -21.412,-21.661 0.001,-14.025 9.545,-21.827 20.168,-21.827 z m 13.279,17.927 c -0.415,-10.125 -6.474,-14.69 -13.362,-14.69 -7.635,0 -14.69,4.979 -16.184,14.69 h 29.546 z"
       id="path7"
       style="fill:#213563" /><path
       d="m 368.981,162.383 c 9.876,0 14.856,5.893 14.856,5.893 l -2.158,2.821 c 0,0 -4.73,-5.312 -12.698,-5.312 -9.71,0 -17.76,7.221 -17.76,18.425 0,11.038 8.05,18.258 17.76,18.258 9.129,0 13.86,-5.975 13.86,-5.975 l 1.826,2.904 c 0,0 -5.395,6.474 -15.686,6.474 -11.702,0 -21.412,-8.466 -21.412,-21.661 0,-13.196 9.877,-21.827 21.412,-21.827 z"
       id="path9"
       style="fill:#213563" /><path
       d="m 408.904,162.383 c 11.868,0 21.495,9.378 21.495,21.495 0,12.366 -9.627,21.993 -21.495,21.993 -11.868,0 -21.495,-9.627 -21.495,-21.993 0,-12.117 9.628,-21.495 21.495,-21.495 z m 0,40.085 c 9.876,0 17.844,-8.05 17.844,-18.59 0,-10.291 -7.967,-18.093 -17.844,-18.093 -9.876,0 -17.843,7.802 -17.843,18.093 0,10.54 7.967,18.59 17.843,18.59 z"
       id="path11"
       style="fill:#213563" /><path
       d="m 449.906,218.901 c 8.881,0 15.769,-4.232 15.769,-14.274 v -4.813 c 0,-1.909 0.332,-3.402 0.332,-3.402 h -0.166 c -2.489,5.062 -7.054,8.465 -13.942,8.465 -10.789,0 -18.425,-8.465 -18.425,-21.412 0,-12.947 7.055,-21.08 17.844,-21.08 11.785,0 14.44,8.133 14.44,8.133 h 0.166 c 0,0 -0.249,-0.58 -0.249,-1.576 v -5.561 h 3.486 v 41.247 c 0,12.698 -9.13,17.678 -19.006,17.678 -4.564,0 -8.963,-1.162 -13.029,-3.237 l 1.659,-3.07 c 0,-0.003 5.146,2.902 11.121,2.902 z m 15.852,-35.438 c 0,-13.361 -6.307,-17.678 -14.44,-17.678 -8.88,0 -14.191,6.474 -14.191,17.678 0,11.204 6.142,18.01 15.021,18.01 7.303,0 13.61,-4.565 13.61,-18.01 z"
       id="path13"
       style="fill:#213563" /><path
       d="m 477.712,146.78 h 4.15 v 6.059 h -4.15 v -6.059 z m 0.332,16.599 h 3.486 v 41.496 h -3.486 v -41.496 z"
       id="path15"
       style="fill:#213563" /><path
       d="m 491.738,166.781 h -5.478 v -3.153 h 5.478 v -11.785 h 3.485 v 11.785 h 10.872 v 3.153 h -10.872 v 22.823 c 0,10.955 6.557,12.366 9.877,12.366 1.161,0 1.908,-0.166 1.908,-0.166 v 3.236 c 0,0 -0.83,0.166 -2.074,0.166 -4.316,0 -13.196,-1.577 -13.196,-15.354 v -23.071 z"
       id="path17"
       style="fill:#213563" /><path
       d="m 529.169,162.383 c 11.868,0 21.495,9.378 21.495,21.495 0,12.366 -9.627,21.993 -21.495,21.993 -11.867,0 -21.495,-9.627 -21.495,-21.993 0,-12.117 9.628,-21.495 21.495,-21.495 z m 0,40.085 c 9.877,0 17.844,-8.05 17.844,-18.59 0,-10.291 -7.967,-18.093 -17.844,-18.093 -9.876,0 -17.843,7.802 -17.843,18.093 0,10.54 7.967,18.59 17.843,18.59 z"
       id="path19"
       style="fill:#213563" /></g><path
     d="m 380.70622,79.85967 0,81.59911"
     id="path3085"
     style="fill:none;stroke:#0098d8;stroke-width:2.20000005;stroke-linecap:butt;stroke-linejoin:miter;stroke-miterlimit:4;stroke-opacity:1;stroke-dasharray:none" /><path
     d="m 648.5203,151.77092 c 0,0 2.92378,3.50843 8.81972,3.50843 4.48243,0 7.79617,-2.68014 7.79617,-6.57852 0,-8.0882 -13.40009,-6.18797 -13.40009,-12.52225 0,-3.16743 2.72851,-4.43406 5.50599,-4.43406 4.14203,0 6.13959,2.2896 6.13959,2.2896 l 1.21825,-1.65658 c 0,0 -2.24122,-2.63176 -7.21153,-2.63176 -4.14144,0 -7.79618,2.24121 -7.79618,6.57852 0,7.94189 13.3995,6.18856 13.3995,12.37653 0,3.02113 -2.63116,4.58036 -5.60332,4.58036 -4.82342,0 -7.55193,-3.0695 -7.55193,-3.0695 l -1.31617,1.55923 z m -24.84982,-9.40437 c 0,-6.04166 4.6777,-10.62203 10.47571,-10.62203 5.79802,0 10.47631,4.58037 10.47631,10.62203 0,6.18856 -4.67829,10.91464 -10.47631,10.91464 -5.79801,0 -10.47571,-4.72608 -10.47571,-10.91464 m -2.14446,0 c 0,7.2605 5.6523,12.9128 12.62017,12.9128 6.96789,0 12.62019,-5.6523 12.62019,-12.9128 0,-7.11419 -5.6523,-12.62018 -12.62019,-12.62018 -6.96787,0 -12.62017,5.50599 -12.62017,12.62018 m -5.99741,12.32816 h 2.04653 V 130.3316 h -2.04653 v 24.36311 z m -0.19528,-30.55167 h 2.43649 v -3.5568 h -2.43649 v 3.5568 z m -14.54105,28.5541 c -5.21337,0 -8.81914,-3.99572 -8.81914,-10.57365 0,-6.57851 3.11788,-10.37838 8.33244,-10.37838 4.77504,0 8.47814,2.53384 8.47814,10.37838 0,7.89293 -3.7031,10.57365 -7.99144,10.57365 m -7.84513,8.52712 -0.97459,1.80288 c 2.38751,1.21825 4.97031,1.90024 7.64985,1.90024 5.7986,0 11.15829,-2.9238 11.15829,-10.37839 v -24.2168 h -2.04654 v 3.26478 c 0,0.58464 0.14691,0.92563 0.14691,0.92563 h -0.0979 c 0,0 -1.55923,-4.77505 -8.47814,-4.77505 -6.33428,0 -10.47631,4.77505 -10.47631,12.37712 0,7.6009 4.48301,12.57122 10.81729,12.57122 4.0441,0 6.72424,-1.99757 8.18613,-4.97032 h 0.0973 c 0,0 -0.19528,0.87726 -0.19528,1.99757 v 2.82644 c 0,5.89594 -4.04409,8.3808 -9.25746,8.3808 -3.50843,-9.3e-4 -6.52955,-1.70612 -6.52955,-1.70612 m -23.86046,-13.15644 c 0,-6.33428 8.8681,-6.33428 13.01013,-6.33428 h 1.55924 v 1.31558 c 0,4.82401 -3.02114,10.33059 -8.33244,10.33059 -4.14143,-5.9e-4 -6.23693,-2.7291 -6.23693,-5.31189 m -2.14388,0.1463 c 0,4.87239 4.33612,7.06582 8.28347,7.06582 6.33428,0 8.57608,-5.99329 8.52712,-5.99329 h 0.0979 c 0,0 -0.19527,0.87725 -0.19527,2.19284 v 3.21581 h 2.04652 v -15.73983 c 0,-6.09063 -3.02112,-9.2091 -8.62504,-9.2091 -5.31072,0 -8.2345,2.68013 -8.2345,2.68013 l 1.16927,1.65658 c 0,0 2.72851,-2.33856 6.96789,-2.33856 3.89778,0 6.67586,1.85127 6.67586,7.25992 v 0.82828 h -1.6082 c -4.33613,0 -15.10505,0.0979 -15.10505,8.3814 m -8.47814,1.55924 c 0,4.58036 3.36211,5.11603 4.77504,5.11603 0.43833,0 0.87725,-0.0979 0.87725,-0.0979 v -1.89963 c 0,0 -0.34099,0.0484 -0.73094,0.0484 -1.12032,0 -2.87482,-0.38937 -2.87482,-3.80045 v -28.55416 h -2.04653 v 29.18771 z m -23.6805,-9.50172 c 0.87666,-5.70126 5.01869,-8.62505 9.5017,-8.62505 4.0441,0 7.6009,2.68014 7.84514,8.62505 h -17.34684 z m -2.29018,2.28959 c 0,7.7478 5.70125,12.71812 12.57121,12.71812 5.26234,0 8.67342,-3.36271 8.67342,-3.36271 l -1.12032,-1.70554 c 0,0 -2.87481,3.0695 -7.55251,3.0695 -5.6523,0 -10.42735,-4.0441 -10.42735,-11.10932 h 19.5391 c 0,0 0.0973,-0.77991 0.0973,-1.31618 0,-5.89535 -3.31315,-11.10991 -9.94004,-11.10991 -6.23753,0.001 -11.84085,4.58213 -11.84085,12.81604 m -20.60568,-3.94675 v -16.07905 h 9.01441 c 4.97031,0 8.28346,2.87482 8.28346,7.99085 0,5.11604 -3.31315,8.0882 -8.28346,8.0882 h -9.01441 z m -2.0955,16.08023 h 2.0955 v -14.13045 h 9.11175 c 5.94432,0 10.37838,-3.84942 10.37838,-10.03739 0,-6.18856 -4.43406,-9.94063 -10.37838,-9.94063 h -11.20666 v 34.10847 z"
     id="path5-7"
     style="fill:#0098d8;fill-opacity:1" /><g
     transform="matrix(0.58994846,0,0,0.58994846,289.82161,-53.04325)"
     id="g7"
     style="stroke:#0098d8;stroke-opacity:1"><circle
       cx="284.14899"
       cy="293.58099"
       r="69.82"
       id="circle9"
       style="fill:none;stroke:#0098d8;stroke-width:2.66109991;stroke-opacity:1" /><line
       style="fill:none;stroke:#0098d8;stroke-width:1.32910001;stroke-opacity:1"
       id="line11"
       y2="358.035"
       x2="257.77399"
       y1="346.435"
       x1="262.543" /><line
       style="fill:none;stroke:#0098d8;stroke-width:1.32910001;stroke-opacity:1"
       id="line13"
       y2="240.72701"
       x2="306.00601"
       y1="229.127"
       x1="310.77499" /><line
       style="fill:none;stroke:#0098d8;stroke-width:1.32910001;stroke-opacity:1"
       id="line15"
       y2="320.08099"
       x2="348.729"
       y1="315.31201"
       x1="337.129" /><line
       style="fill:none;stroke:#0098d8;stroke-width:1.32910001;stroke-opacity:1"
       id="line17"
       y2="271.85001"
       x2="231.41901"
       y1="267.08099"
       x1="219.819" /><rect
       width="80.619003"
       height="80.617996"
       x="243.964"
       y="253.27299"
       transform="matrix(0.3851,0.9229,-0.9229,0.3851,445.7408,-81.825)"
       id="rect19"
       style="fill:none;stroke:#0098d8;stroke-width:1.32910001;stroke-opacity:1" /><g
       id="g21"
       style="stroke:#0098d8;stroke-opacity:1"><line
         style="fill:none;stroke:#0098d8;stroke-width:1.32910001;stroke-opacity:1"
         id="line23"
         y2="223.63699"
         x2="284.17001"
         y1="249.30099"
         x1="284.173" /></g><line
       style="fill:none;stroke:#0098d8;stroke-width:1.32910001;stroke-opacity:1"
       id="line25"
       y2="244.46899"
       x2="235.02901"
       y1="263.34698"
       x1="253.673" /><line
       style="fill:none;stroke:#0098d8;stroke-width:1.32910001;stroke-opacity:1"
       id="line27"
       y2="262.31201"
       x2="315.56699"
       y1="244.33701"
       x1="333.38901" /><g
       id="g29"
       style="stroke:#0098d8;stroke-opacity:1"><line
         style="fill:none;stroke:#0098d8;stroke-width:1.32910001;stroke-opacity:1"
         id="line31"
         y2="293.604"
         x2="214.832"
         y1="293.604"
         x1="240.104" /></g><rect
       width="80.619003"
       height="80.617996"
       x="243.966"
       y="253.272"
       transform="matrix(0.9249,0.3803,-0.3803,0.9249,132.9936,-86.0453)"
       id="rect33"
       style="fill:none;stroke:#0098d8;stroke-width:1.32910001;stroke-opacity:1" /><line
       style="fill:none;stroke:#0098d8;stroke-width:1.32910001;stroke-opacity:1"
       id="line35"
       y2="357.897"
       x2="311.11099"
       y1="346.32199"
       x1="306.28101" /><line
       style="fill:none;stroke:#0098d8;stroke-width:1.32910001;stroke-opacity:1"
       id="line37"
       y2="240.842"
       x2="262.26599"
       y1="229.267"
       x1="257.436" /><line
       style="fill:none;stroke:#0098d8;stroke-width:1.32910001;stroke-opacity:1"
       id="line39"
       y2="266.74399"
       x2="348.59"
       y1="271.57401"
       x1="337.01401" /><line
       style="fill:none;stroke:#0098d8;stroke-width:1.32910001;stroke-opacity:1"
       id="line41"
       y2="315.58899"
       x2="231.535"
       y1="320.41901"
       x1="219.96001" /><line
       style="fill:none;stroke:#0098d8;stroke-width:1.32910001;stroke-opacity:1"
       id="line43"
       y2="363.48801"
       x2="284.32901"
       y1="336.60901"
       x1="284.32901" /><line
       style="fill:none;stroke:#0098d8;stroke-width:1.32910001;stroke-opacity:1"
       id="line45"
       y2="323.81699"
       x2="314.87399"
       y1="342.69601"
       x1="333.51801" /><line
       style="fill:none;stroke:#0098d8;stroke-width:1.32910001;stroke-opacity:1"
       id="line47"
       y2="342.82599"
       x2="235.161"
       y1="325.01199"
       x1="253.377" /><line
       style="fill:none;stroke:#0098d8;stroke-width:1.32910001;stroke-opacity:1"
       id="line49"
       y2="293.604"
       x2="328.55701"
       y1="293.604"
       x1="353.82901" /><line
       style="fill:none;stroke:#0098d8;stroke-width:1.32910001;stroke-opacity:1"
       id="line51"
       y2="244.468"
       x2="235.03"
       y1="272.18301"
       x1="231.437" /><g
       id="g53"
       style="stroke:#0098d8;stroke-opacity:1"><line
         style="fill:none;stroke:#0098d8;stroke-width:1.32910001;stroke-opacity:1"
         id="line55"
         y2="293.73901"
         x2="215"
         y1="272.18301"
         x1="231.437" /><line
         style="fill:none;stroke:#0098d8;stroke-width:1.32910001;stroke-opacity:1"
         id="line57"
         y2="293.73901"
         x2="214.99899"
         y1="315.59"
         x1="231.535" /></g><line
       style="fill:none;stroke:#0098d8;stroke-width:1.32910001;stroke-opacity:1"
       id="line59"
       y2="342.82599"
       x2="235.16"
       y1="315.59"
       x1="231.535" /><line
       style="fill:none;stroke:#0098d8;stroke-width:1.32910001;stroke-opacity:1"
       id="line61"
       y2="342.82599"
       x2="235.16"
       y1="346.03"
       x1="261.92999" /><line
       style="fill:none;stroke:#0098d8;stroke-width:1.32910001;stroke-opacity:1"
       id="line63"
       y2="363.13101"
       x2="284.54599"
       y1="346.03"
       x1="261.92999" /><line
       style="fill:none;stroke:#0098d8;stroke-width:1.32910001;stroke-opacity:1"
       id="line65"
       y2="363.13101"
       x2="284.54599"
       y1="346.32101"
       x1="306.28201" /><line
       style="fill:none;stroke:#0098d8;stroke-width:1.32910001;stroke-opacity:1"
       id="line67"
       y2="342.422"
       x2="333.40399"
       y1="346.32101"
       x1="306.28201" /><line
       style="fill:none;stroke:#0098d8;stroke-width:1.32910001;stroke-opacity:1"
       id="line69"
       y2="342.42099"
       x2="333.40399"
       y1="315.92599"
       x1="336.72299" /><line
       style="fill:none;stroke:#0098d8;stroke-width:1.32910001;stroke-opacity:1"
       id="line71"
       y2="293.702"
       x2="352.88199"
       y1="315.92599"
       x1="336.72299" /><line
       style="fill:none;stroke:#0098d8;stroke-width:1.32910001;stroke-opacity:1"
       id="line73"
       y2="293.702"
       x2="352.88199"
       y1="271.57501"
       x1="337.01401" /><line
       style="fill:none;stroke:#0098d8;stroke-width:1.32910001;stroke-opacity:1"
       id="line75"
       y2="244.33701"
       x2="333.38901"
       y1="271.57501"
       x1="337.01401" /><line
       style="fill:none;stroke:#0098d8;stroke-width:1.32910001;stroke-opacity:1"
       id="line77"
       y2="244.33701"
       x2="333.38901"
       y1="240.85899"
       x1="306.504" /><g
       id="g79"
       style="stroke:#0098d8;stroke-opacity:1"><line
         style="fill:none;stroke:#0098d8;stroke-width:1.32910001;stroke-opacity:1"
         id="line81"
         y2="224.032"
         x2="284.00201"
         y1="240.85899"
         x1="306.504" /><line
         style="fill:none;stroke:#0098d8;stroke-width:1.32910001;stroke-opacity:1"
         id="line83"
         y2="224.033"
         x2="284.00201"
         y1="241.039"
         x1="262.67099" /></g><line
       style="fill:none;stroke:#0098d8;stroke-width:1.32910001;stroke-opacity:1"
       id="line85"
       y2="244.468"
       x2="235.03"
       y1="241.039"
       x1="262.67099" /></g><g
     id="g3514"><g
       id="g3562"><g
         id="g3550"
         transform="matrix(1.6985563,0,0,1.6985563,-402.07186,15.397107)"><path
           style="fill:#0797d5"
           inkscape:connector-curvature="0"
           id="path4"
           d="m 536.64312,94.066593 0.8401,0 0,-2.9774 c 0,-0.2965 0.0247,-0.5807 0.0988,-0.8401 0.2842,-1.0255 1.1984,-1.7544 2.2609,-1.7544 1.1984,0 1.3467,0.8648 1.3467,1.8408 l 0,3.7311 0.8401,0 0,-3.9535 c 0,-1.5319 -0.5436,-2.4091 -2.0756,-2.4091 -1.4702,0 -2.2609,1.0007 -2.4833,1.569 l -0.0247,0 c 0,0 0.0247,-0.2224 0.0247,-0.4942 l 0,-0.9266 -0.8277,0 0,6.2144 z" /><path
           style="fill:#0797d5"
           inkscape:connector-curvature="0"
           id="path6"
           d="m 543.53422,90.965593 c 0,1.915 1.3961,3.2493 3.2493,3.2493 1.396,0 2.2979,-0.8648 2.2979,-0.8648 l -0.383,-0.6425 c 0,0 -0.7536,0.7537 -1.8902,0.7537 -1.2849,0 -2.3721,-0.8649 -2.4092,-2.4586 l 4.7689,0 c 0,0 0.0247,-0.2842 0.0247,-0.4324 0,-1.5444 -0.8772,-2.8663 -2.5945,-2.8663 -1.6802,0 -3.0639,1.2231 -3.0639,3.2616 z m 0.9019,-0.6548 c 0.1976,-1.2478 1.0995,-1.9026 2.1373,-1.9026 0.9266,0 1.7173,0.6054 1.7667,1.9026 l -3.904,0 z" /><path
           style="fill:#0797d5"
           inkscape:connector-curvature="0"
           id="path8"
           d="m 551.03022,91.805693 c 0,2.0756 1.4455,2.3104 2.1621,2.3104 0.2223,0 0.3582,-0.0247 0.3582,-0.0247 l 0,-0.7537 c 0,0 -0.1112,0.0247 -0.2841,0.0247 -0.4695,0 -1.3961,-0.1853 -1.3961,-1.6431 l 0,-3.0887 1.5567,0 0,-0.7042 -1.5567,0 0,-1.7915 -0.8278,0 0,1.7915 -0.8277,0 0,0.7042 0.8154,0 0,3.1751 z" /><path
           style="fill:#0797d5"
           inkscape:connector-curvature="0"
           id="path10"
           d="m 556.23102,94.066593 0.9143,0 1.5196,-4.4229 c 0.0988,-0.3089 0.1853,-0.6672 0.1853,-0.6672 l 0.0247,0 c 0,0 0.0865,0.3583 0.1977,0.6672 l 1.5196,4.4229 0.9138,0 2.101,-6.2144 -0.89,0 -1.507,4.633 c -0.0989,0.3089 -0.1854,0.6672 -0.1854,0.6672 l -0.0247,0 c 0,0 -0.0865,-0.3706 -0.1853,-0.6672 l -1.532,-4.6082 -0.8277,0 -1.532,4.6082 c -0.0989,0.2966 -0.1853,0.6672 -0.1853,0.6672 l -0.0247,0 c 0,0 -0.0865,-0.3706 -0.1854,-0.6672 l -1.5072,-4.633 -0.8896,0 2.1003,6.2144 z" /><path
           style="fill:#0797d5"
           inkscape:connector-curvature="0"
           id="path12"
           d="m 564.37002,90.928593 c 0,1.8779 1.47,3.2863 3.286,3.2863 1.817,0 3.287,-1.4084 3.287,-3.2863 0,-1.8409 -1.47,-3.2246 -3.287,-3.2246 -1.816,0 -3.286,1.3837 -3.286,3.2246 z m 0.865,0 c 0,-1.4085 1.087,-2.4586 2.421,-2.4586 1.335,0 2.422,1.0501 2.422,2.4586 0,1.4455 -1.087,2.5327 -2.422,2.5327 -1.334,0 -2.421,-1.0872 -2.421,-2.5327 z" /><path
           style="fill:#0797d5"
           inkscape:connector-curvature="0"
           id="path14"
           d="m 572.51302,94.066593 0.84,0 0,-2.6191 c 0,-0.3954 0.049,-0.8155 0.173,-1.2108 0.272,-0.9142 0.926,-1.6061 1.804,-1.6061 0.16,0 0.308,0.0247 0.308,0.0247 l 0,-0.8278 c 0,0 -0.16,-0.037 -0.333,-0.037 -0.976,0 -1.668,0.7165 -1.965,1.6555 l -0.024,0 c 0,0 0.024,-0.2224 0.024,-0.4942 l 0,-1.0996 -0.827,0 0,6.2144 z" /><path
           style="fill:#0797d5"
           inkscape:connector-curvature="0"
           id="path16"
           d="m 576.91602,94.066593 0.841,0 0,-3.1133 1,0 2.076,3.1133 1.001,0 -2.373,-3.484 0,-0.0247 2.163,-2.7057 -1.014,0 -1.865,2.3721 -0.988,0 0,-4.843 -0.841,0 0,8.6853 z" /></g><g
         id="g3536"
         transform="matrix(1.6985563,0,0,1.6985563,-402.07186,15.397107)"><path
           style="fill:#0797d5"
           inkscape:connector-curvature="0"
           id="path90"
           d="m 537.18202,56.812793 0.884,0 0,-3.12 c 0,-0.338 -0.026,-0.572 -0.026,-0.572 l 0.026,0 c 0,0 0.572,1.248 2.145,1.248 1.69,0 2.925,-1.352 2.925,-3.419 0,-2.028 -1.092,-3.43202 -2.847,-3.43202 -1.729,0 -2.262,1.30002 -2.262,1.30002 l -0.026,0 c 0,0 0.026,-0.221 0.026,-0.507 l 0,-0.637 -0.845,0 0,9.139 z m 0.858,-5.85 c 0,-1.859 1.027,-2.639 2.119,-2.639 1.222,0 2.067,1.027 2.067,2.626 0,1.664 -0.949,2.639 -2.106,2.639 -1.352,0 -2.08,-1.313 -2.08,-2.626 z" /><path
           style="fill:#0797d5"
           inkscape:connector-curvature="0"
           id="path92"
           d="m 544.30432,52.431793 c 0,1.3 1.131,1.937 2.223,1.937 1.638,0 2.184,-1.417 2.184,-1.417 l 0.026,0 c 0,0 -0.026,0.221 -0.026,0.546 l 0,0.715 0.845,0 0,-4.186 c 0,-1.638 -0.871,-2.50902 -2.444,-2.50902 -1.469,0 -2.327,0.74102 -2.327,0.74102 l 0.416,0.676 c 0,0 0.767,-0.624 1.846,-0.624 0.936,0 1.625,0.429 1.625,1.69 l 0,0.169 -0.364,0 c -1.131,0 -4.004,0.052 -4.004,2.262 z m 0.91,-0.052 c 0,-1.443 2.054,-1.482 3.081,-1.482 l 0.377,0 0,0.286 c 0,1.131 -0.754,2.431 -2.002,2.431 -0.975,0 -1.456,-0.624 -1.456,-1.235 z" /><path
           style="fill:#0797d5"
           inkscape:connector-curvature="0"
           id="path94"
           d="m 551.59122,54.212793 0.884,0 0,-2.756 c 0,-0.416 0.052,-0.858 0.182,-1.274 0.286,-0.962 0.975,-1.69 1.898,-1.69 0.169,0 0.325,0.026 0.325,0.026 l 0,-0.871 c 0,0 -0.169,-0.039 -0.351,-0.039 -1.027,0 -1.755,0.754 -2.067,1.742 l -0.026,0 c 0,0 0.026,-0.234 0.026,-0.52 l 0,-1.157 -0.871,0 0,6.539 z" /><path
           style="fill:#0797d5"
           inkscape:connector-curvature="0"
           id="path96"
           d="m 556.47202,51.833793 c 0,2.184 1.521,2.431 2.275,2.431 0.234,0 0.377,-0.026 0.377,-0.026 l 0,-0.793 c 0,0 -0.117,0.026 -0.299,0.026 -0.494,0 -1.469,-0.195 -1.469,-1.729 l 0,-3.25 1.638,0 0,-0.741 -1.638,0 0,-1.88502 -0.871,0 0,1.88502 -0.871,0 0,0.741 0.858,0 0,3.341 z" /><path
           style="fill:#0797d5"
           inkscape:connector-curvature="0"
           id="path98"
           d="m 560.57952,54.212793 0.8835,0 0,-3.133 c 0,-0.312 0.026,-0.611 0.104,-0.884 0.299,-1.079 1.261,-1.846 2.379,-1.846 1.261,0 1.417,0.91 1.417,1.937 l 0,3.926 0.884,0 0,-4.16 c 0,-1.612 -0.572,-2.53502 -2.184,-2.53502 -1.547,0 -2.379,1.05302 -2.613,1.65102 l -0.026,0 c 0,0 0.026,-0.234 0.026,-0.52 l 0,-0.975 -0.8705,0 0,6.539 z" /><path
           style="fill:#0797d5"
           inkscape:connector-curvature="0"
           id="path100"
           d="m 567.83102,50.949793 c 0,2.015 1.469,3.419 3.419,3.419 1.469,0 2.418,-0.91 2.418,-0.91 l -0.403,-0.676 c 0,0 -0.793,0.793 -1.989,0.793 -1.352,0 -2.496,-0.91 -2.535,-2.587 l 5.018,0 c 0,0 0.026,-0.299 0.026,-0.455 0,-1.625 -0.923,-3.01602 -2.73,-3.01602 -1.768,0 -3.224,1.28702 -3.224,3.43202 z m 0.949,-0.689 c 0.208,-1.313 1.157,-2.002 2.249,-2.002 0.975,0 1.807,0.637 1.859,2.002 l -4.108,0 z" /><path
           style="fill:#0797d5"
           inkscape:connector-curvature="0"
           id="path102"
           d="m 575.47102,54.212793 0.884,0 0,-2.756 c 0,-0.416 0.052,-0.858 0.182,-1.274 0.286,-0.962 0.975,-1.69 1.898,-1.69 0.169,0 0.325,0.026 0.325,0.026 l 0,-0.871 c 0,0 -0.169,-0.039 -0.351,-0.039 -1.027,0 -1.755,0.754 -2.067,1.742 l -0.026,0 c 0,0 0.026,-0.234 0.026,-0.52 l 0,-1.157 -0.871,0 0,6.539 z" /><path
           style="fill:#0797d5"
           inkscape:connector-curvature="0"
           id="path104"
           d="m 583.11502,50.910793 c 0,1.976 1.547,3.458 3.458,3.458 1.911,0 3.458,-1.482 3.458,-3.458 0,-1.937 -1.547,-3.39302 -3.458,-3.39302 -1.911,0 -3.458,1.45602 -3.458,3.39302 z m 0.91,0 c 0,-1.482 1.144,-2.587 2.548,-2.587 1.404,0 2.548,1.105 2.548,2.587 0,1.521 -1.144,2.665 -2.548,2.665 -1.404,0 -2.548,-1.144 -2.548,-2.665 z" /><path
           style="fill:#0797d5"
           inkscape:connector-curvature="0"
           id="path106"
           d="m 591.94402,54.212793 0.884,0 0,-5.72 1.677,0 0,-0.741 -1.677,0 0,-0.31202 c 0,-1.456 0.962,-1.638 1.469,-1.638 0.182,0 0.312,0.026 0.312,0.026 l 0,-0.793 c 0,0 -0.156,-0.026 -0.403,-0.026 -0.741,0 -2.262,0.273 -2.262,2.431 l 0,0.31202 -0.819,0 0,0.741 0.819,0 0,5.72 z" /><path
           style="fill:#0797d5"
           inkscape:connector-curvature="0"
           id="path108"
           d="m 599.54702,51.833793 c 0,2.184 1.521,2.431 2.275,2.431 0.234,0 0.377,-0.026 0.377,-0.026 l 0,-0.793 c 0,0 -0.117,0.026 -0.299,0.026 -0.494,0 -1.469,-0.195 -1.469,-1.729 l 0,-3.25 1.638,0 0,-0.741 -1.638,0 0,-1.88502 -0.871,0 0,1.88502 -0.871,0 0,0.741 0.858,0 0,3.341 z" /><path
           style="fill:#0797d5"
           inkscape:connector-curvature="0"
           id="path110"
           d="m 603.65502,54.212793 0.884,0 0,-3.133 c 0,-0.312 0.026,-0.611 0.104,-0.871 0.299,-1.092 1.261,-1.859 2.379,-1.859 1.261,0 1.417,0.91 1.417,1.937 l 0,3.926 0.884,0 0,-4.16 c 0,-1.612 -0.572,-2.53502 -2.184,-2.53502 -1.482,0 -2.353,1.00102 -2.6,1.62502 l -0.026,0 c 0,0 0.026,-0.234 0.026,-0.533 l 0,-3.53602 -0.884,0 0,9.13902 z" /><path
           style="fill:#0797d5"
           inkscape:connector-curvature="0"
           id="path112"
           d="m 610.90602,50.949793 c 0,2.015 1.469,3.419 3.419,3.419 1.469,0 2.418,-0.91 2.418,-0.91 l -0.403,-0.676 c 0,0 -0.793,0.793 -1.989,0.793 -1.352,0 -2.496,-0.91 -2.535,-2.587 l 5.018,0 c 0,0 0.026,-0.299 0.026,-0.455 0,-1.625 -0.923,-3.01602 -2.73,-3.01602 -1.768,0 -3.224,1.28702 -3.224,3.43202 z m 0.949,-0.689 c 0.208,-1.313 1.157,-2.002 2.249,-2.002 0.975,0 1.807,0.637 1.859,2.002 l -4.108,0 z" /></g></g></g></svg>