<?xml version="1.0" encoding="UTF-8" standalone="no"?>
<!-- Created with Inkscape (http://www.inkscape.org/) -->

<svg
   xmlns:dc="http://purl.org/dc/elements/1.1/"
   xmlns:cc="http://creativecommons.org/ns#"
   xmlns:rdf="http://www.w3.org/1999/02/22-rdf-syntax-ns#"
   xmlns:svg="http://www.w3.org/2000/svg"
   xmlns="http://www.w3.org/2000/svg"
   version="1.0"
   width="750"
   height="240"
   viewBox="0 0 749.99999 239.99999"
   id="Layer_1"
   xml:space="preserve"><metadata
     id="metadata43"><rdf:RDF><cc:Work
         rdf:about=""><dc:format>image/svg+xml</dc:format><dc:type
           rdf:resource="http://purl.org/dc/dcmitype/StillImage" /><dc:title></dc:title></cc:Work></rdf:RDF></metadata><defs
     id="defs41" /><g
     transform="translate(-202.97265,-53.0254)"
     id="g3"><path
       d="m 267.148,146.78 h 17.013 c 5.395,0 8.133,0.581 10.457,1.743 4.813,2.406 8.05,7.303 8.05,13.942 0,8.299 -4.813,14.523 -11.619,16.018 v 0.166 c 0,0 0.581,0.664 1.328,2.075 l 13.03,24.15 h -4.232 l -13.777,-25.728 h -16.682 v 25.728 h -3.568 V 146.78 z m 19.337,29.047 c 7.635,0 12.449,-5.478 12.449,-13.361 0,-5.146 -2.573,-9.295 -6.806,-11.204 -1.66,-0.747 -3.485,-1.162 -8.133,-1.162 h -13.279 v 25.728 h 15.769 z"
       id="path5"
       style="fill:#213563" /><path
       d="m 327.565,162.383 c 11.287,0 16.93,8.88 16.93,18.922 0,0.913 -0.166,2.241 -0.166,2.241 h -33.28 c 0,12.034 8.133,18.922 17.76,18.922 7.967,0 12.864,-5.229 12.864,-5.229 l 1.909,2.905 c 0,0 -5.81,5.727 -14.773,5.727 -11.702,0 -21.412,-8.466 -21.412,-21.661 0.001,-14.025 9.545,-21.827 20.168,-21.827 z m 13.279,17.927 c -0.415,-10.125 -6.474,-14.69 -13.362,-14.69 -7.635,0 -14.69,4.979 -16.184,14.69 h 29.546 z"
       id="path7"
       style="fill:#213563" /><path
       d="m 368.981,162.383 c 9.876,0 14.856,5.893 14.856,5.893 l -2.158,2.821 c 0,0 -4.73,-5.312 -12.698,-5.312 -9.71,0 -17.76,7.221 -17.76,18.425 0,11.038 8.05,18.258 17.76,18.258 9.129,0 13.86,-5.975 13.86,-5.975 l 1.826,2.904 c 0,0 -5.395,6.474 -15.686,6.474 -11.702,0 -21.412,-8.466 -21.412,-21.661 0,-13.196 9.877,-21.827 21.412,-21.827 z"
       id="path9"
       style="fill:#213563" /><path
       d="m 408.904,162.383 c 11.868,0 21.495,9.378 21.495,21.495 0,12.366 -9.627,21.993 -21.495,21.993 -11.868,0 -21.495,-9.627 -21.495,-21.993 0,-12.117 9.628,-21.495 21.495,-21.495 z m 0,40.085 c 9.876,0 17.844,-8.05 17.844,-18.59 0,-10.291 -7.967,-18.093 -17.844,-18.093 -9.876,0 -17.843,7.802 -17.843,18.093 0,10.54 7.967,18.59 17.843,18.59 z"
       id="path11"
       style="fill:#213563" /><path
       d="m 449.906,218.901 c 8.881,0 15.769,-4.232 15.769,-14.274 v -4.813 c 0,-1.909 0.332,-3.402 0.332,-3.402 h -0.166 c -2.489,5.062 -7.054,8.465 -13.942,8.465 -10.789,0 -18.425,-8.465 -18.425,-21.412 0,-12.947 7.055,-21.08 17.844,-21.08 11.785,0 14.44,8.133 14.44,8.133 h 0.166 c 0,0 -0.249,-0.58 -0.249,-1.576 v -5.561 h 3.486 v 41.247 c 0,12.698 -9.13,17.678 -19.006,17.678 -4.564,0 -8.963,-1.162 -13.029,-3.237 l 1.659,-3.07 c 0,-0.003 5.146,2.902 11.121,2.902 z m 15.852,-35.438 c 0,-13.361 -6.307,-17.678 -14.44,-17.678 -8.88,0 -14.191,6.474 -14.191,17.678 0,11.204 6.142,18.01 15.021,18.01 7.303,0 13.61,-4.565 13.61,-18.01 z"
       id="path13"
       style="fill:#213563" /><path
       d="m 477.712,146.78 h 4.15 v 6.059 h -4.15 v -6.059 z m 0.332,16.599 h 3.486 v 41.496 h -3.486 v -41.496 z"
       id="path15"
       style="fill:#213563" /><path
       d="m 491.738,166.781 h -5.478 v -3.153 h 5.478 v -11.785 h 3.485 v 11.785 h 10.872 v 3.153 h -10.872 v 22.823 c 0,10.955 6.557,12.366 9.877,12.366 1.161,0 1.908,-0.166 1.908,-0.166 v 3.236 c 0,0 -0.83,0.166 -2.074,0.166 -4.316,0 -13.196,-1.577 -13.196,-15.354 v -23.071 z"
       id="path17"
       style="fill:#213563" /><path
       d="m 529.169,162.383 c 11.868,0 21.495,9.378 21.495,21.495 0,12.366 -9.627,21.993 -21.495,21.993 -11.867,0 -21.495,-9.627 -21.495,-21.993 0,-12.117 9.628,-21.495 21.495,-21.495 z m 0,40.085 c 9.877,0 17.844,-8.05 17.844,-18.59 0,-10.291 -7.967,-18.093 -17.844,-18.093 -9.876,0 -17.843,7.802 -17.843,18.093 0,10.54 7.967,18.59 17.843,18.59 z"
       id="path19"
       style="fill:#213563" /></g><path
     d="m 380.70622,79.85967 0,81.59911"
     id="path3085"
     style="fill:none;stroke:#0098d8;stroke-width:2.20000005;stroke-linecap:butt;stroke-linejoin:miter;stroke-miterlimit:4;stroke-opacity:1;stroke-dasharray:none" /><path
     d="m 648.5203,151.77092 c 0,0 2.92378,3.50843 8.81972,3.50843 4.48243,0 7.79617,-2.68014 7.79617,-6.57852 0,-8.0882 -13.40009,-6.18797 -13.40009,-12.52225 0,-3.16743 2.72851,-4.43406 5.50599,-4.43406 4.14203,0 6.13959,2.2896 6.13959,2.2896 l 1.21825,-1.65658 c 0,0 -2.24122,-2.63176 -7.21153,-2.63176 -4.14144,0 -7.79618,2.24121 -7.79618,6.57852 0,7.94189 13.3995,6.18856 13.3995,12.37653 0,3.02113 -2.63116,4.58036 -5.60332,4.58036 -4.82342,0 -7.55193,-3.0695 -7.55193,-3.0695 l -1.31617,1.55923 z m -24.84982,-9.40437 c 0,-6.04166 4.6777,-10.62203 10.47571,-10.62203 5.79802,0 10.47631,4.58037 10.47631,10.62203 0,6.18856 -4.67829,10.91464 -10.47631,10.91464 -5.79801,0 -10.47571,-4.72608 -10.47571,-10.91464 m -2.14446,0 c 0,7.2605 5.6523,12.9128 12.62017,12.9128 6.96789,0 12.62019,-5.6523 12.62019,-12.9128 0,-7.11419 -5.6523,-12.62018 -12.62019,-12.62018 -6.96787,0 -12.62017,5.50599 -12.62017,12.62018 m -5.99741,12.32816 h 2.04653 V 130.3316 h -2.04653 v 24.36311 z m -0.19528,-30.55167 h 2.43649 v -3.5568 h -2.43649 v 3.5568 z m -14.54105,28.5541 c -5.21337,0 -8.81914,-3.99572 -8.81914,-10.57365 0,-6.57851 3.11788,-10.37838 8.33244,-10.37838 4.77504,0 8.47814,2.53384 8.47814,10.37838 0,7.89293 -3.7031,10.57365 -7.99144,10.57365 m -7.84513,8.52712 -0.97459,1.80288 c 2.38751,1.21825 4.97031,1.90024 7.64985,1.90024 5.7986,0 11.15829,-2.9238 11.15829,-10.37839 v -24.2168 h -2.04654 v 3.26478 c 0,0.58464 0.14691,0.92563 0.14691,0.92563 h -0.0979 c 0,0 -1.55923,-4.77505 -8.47814,-4.77505 -6.33428,0 -10.47631,4.77505 -10.47631,12.37712 0,7.6009 4.48301,12.57122 10.81729,12.57122 4.0441,0 6.72424,-1.99757 8.18613,-4.97032 h 0.0973 c 0,0 -0.19528,0.87726 -0.19528,1.99757 v 2.82644 c 0,5.89594 -4.04409,8.3808 -9.25746,8.3808 -3.50843,-9.3e-4 -6.52955,-1.70612 -6.52955,-1.70612 m -23.86046,-13.15644 c 0,-6.33428 8.8681,-6.33428 13.01013,-6.33428 h 1.55924 v 1.31558 c 0,4.82401 -3.02114,10.33059 -8.33244,10.33059 -4.14143,-5.9e-4 -6.23693,-2.7291 -6.23693,-5.31189 m -2.14388,0.1463 c 0,4.87239 4.33612,7.06582 8.28347,7.06582 6.33428,0 8.57608,-5.99329 8.52712,-5.99329 h 0.0979 c 0,0 -0.19527,0.87725 -0.19527,2.19284 v 3.21581 h 2.04652 v -15.73983 c 0,-6.09063 -3.02112,-9.2091 -8.62504,-9.2091 -5.31072,0 -8.2345,2.68013 -8.2345,2.68013 l 1.16927,1.65658 c 0,0 2.72851,-2.33856 6.96789,-2.33856 3.89778,0 6.67586,1.85127 6.67586,7.25992 v 0.82828 h -1.6082 c -4.33613,0 -15.10505,0.0979 -15.10505,8.3814 m -8.47814,1.55924 c 0,4.58036 3.36211,5.11603 4.77504,5.11603 0.43833,0 0.87725,-0.0979 0.87725,-0.0979 v -1.89963 c 0,0 -0.34099,0.0484 -0.73094,0.0484 -1.12032,0 -2.87482,-0.38937 -2.87482,-3.80045 v -28.55416 h -2.04653 v 29.18771 z m -23.6805,-9.50172 c 0.87666,-5.70126 5.01869,-8.62505 9.5017,-8.62505 4.0441,0 7.6009,2.68014 7.84514,8.62505 h -17.34684 z m -2.29018,2.28959 c 0,7.7478 5.70125,12.71812 12.57121,12.71812 5.26234,0 8.67342,-3.36271 8.67342,-3.36271 l -1.12032,-1.70554 c 0,0 -2.87481,3.0695 -7.55251,3.0695 -5.6523,0 -10.42735,-4.0441 -10.42735,-11.10932 h 19.5391 c 0,0 0.0973,-0.77991 0.0973,-1.31618 0,-5.89535 -3.31315,-11.10991 -9.94004,-11.10991 -6.23753,0.001 -11.84085,4.58213 -11.84085,12.81604 m -20.60568,-3.94675 v -16.07905 h 9.01441 c 4.97031,0 8.28346,2.87482 8.28346,7.99085 0,5.11604 -3.31315,8.0882 -8.28346,8.0882 h -9.01441 z m -2.0955,16.08023 h 2.0955 v -14.13045 h 9.11175 c 5.94432,0 10.37838,-3.84942 10.37838,-10.03739 0,-6.18856 -4.43406,-9.94063 -10.37838,-9.94063 h -11.20666 v 34.10847 z"
     id="path5-7"
     style="fill:#0098d8;fill-opacity:1" /><g
     transform="matrix(0.58994846,0,0,0.58994846,289.82161,-53.04325)"
     id="g7"
     style="stroke:#0098d8;stroke-opacity:1"><circle
       cx="284.14899"
       cy="293.58099"
       r="69.82"
       id="circle9"
       style="fill:none;stroke:#0098d8;stroke-width:2.66109991;stroke-opacity:1" /><line
       style="fill:none;stroke:#0098d8;stroke-width:1.32910001;stroke-opacity:1"
       id="line11"
       y2="358.035"
       x2="257.77399"
       y1="346.435"
       x1="262.543" /><line
       style="fill:none;stroke:#0098d8;stroke-width:1.32910001;stroke-opacity:1"
       id="line13"
       y2="240.72701"
       x2="306.00601"
       y1="229.127"
       x1="310.77499" /><line
       style="fill:none;stroke:#0098d8;stroke-width:1.32910001;stroke-opacity:1"
       id="line15"
       y2="320.08099"
       x2="348.729"
       y1="315.31201"
       x1="337.129" /><line
       style="fill:none;stroke:#0098d8;stroke-width:1.32910001;stroke-opacity:1"
       id="line17"
       y2="271.85001"
       x2="231.41901"
       y1="267.08099"
       x1="219.819" /><rect
       width="80.619003"
       height="80.617996"
       x="243.964"
       y="253.27299"
       transform="matrix(0.3851,0.9229,-0.9229,0.3851,445.7408,-81.825)"
       id="rect19"
       style="fill:none;stroke:#0098d8;stroke-width:1.32910001;stroke-opacity:1" /><g
       id="g21"
       style="stroke:#0098d8;stroke-opacity:1"><line
         style="fill:none;stroke:#0098d8;stroke-width:1.32910001;stroke-opacity:1"
         id="line23"
         y2="223.63699"
         x2="284.17001"
         y1="249.30099"
         x1="284.173" /></g><line
       style="fill:none;stroke:#0098d8;stroke-width:1.32910001;stroke-opacity:1"
       id="line25"
       y2="244.46899"
       x2="235.02901"
       y1="263.34698"
       x1="253.673" /><line
       style="fill:none;stroke:#0098d8;stroke-width:1.32910001;stroke-opacity:1"
       id="line27"
       y2="262.31201"
       x2="315.56699"
       y1="244.33701"
       x1="333.38901" /><g
       id="g29"
       style="stroke:#0098d8;stroke-opacity:1"><line
         style="fill:none;stroke:#0098d8;stroke-width:1.32910001;stroke-opacity:1"
         id="line31"
         y2="293.604"
         x2="214.832"
         y1="293.604"
         x1="240.104" /></g><rect
       width="80.619003"
       height="80.617996"
       x="243.966"
       y="253.272"
       transform="matrix(0.9249,0.3803,-0.3803,0.9249,132.9936,-86.0453)"
       id="rect33"
       style="fill:none;stroke:#0098d8;stroke-width:1.32910001;stroke-opacity:1" /><line
       style="fill:none;stroke:#0098d8;stroke-width:1.32910001;stroke-opacity:1"
       id="line35"
       y2="357.897"
       x2="311.11099"
       y1="346.32199"
       x1="306.28101" /><line
       style="fill:none;stroke:#0098d8;stroke-width:1.32910001;stroke-opacity:1"
       id="line37"
       y2="240.842"
       x2="262.26599"
       y1="229.267"
       x1="257.436" /><line
       style="fill:none;stroke:#0098d8;stroke-width:1.32910001;stroke-opacity:1"
       id="line39"
       y2="266.74399"
       x2="348.59"
       y1="271.57401"
       x1="337.01401" /><line
       style="fill:none;stroke:#0098d8;stroke-width:1.32910001;stroke-opacity:1"
       id="line41"
       y2="315.58899"
       x2="231.535"
       y1="320.41901"
       x1="219.96001" /><line
       style="fill:none;stroke:#0098d8;stroke-width:1.32910001;stroke-opacity:1"
       id="line43"
       y2="363.48801"
       x2="284.32901"
       y1="336.60901"
       x1="284.32901" /><line
       style="fill:none;stroke:#0098d8;stroke-width:1.32910001;stroke-opacity:1"
       id="line45"
       y2="323.81699"
       x2="314.87399"
       y1="342.69601"
       x1="333.51801" /><line
       style="fill:none;stroke:#0098d8;stroke-width:1.32910001;stroke-opacity:1"
       id="line47"
       y2="342.82599"
       x2="235.161"
       y1="325.01199"
       x1="253.377" /><line
       style="fill:none;stroke:#0098d8;stroke-width:1.32910001;stroke-opacity:1"
       id="line49"
       y2="293.604"
       x2="328.55701"
       y1="293.604"
       x1="353.82901" /><line
       style="fill:none;stroke:#0098d8;stroke-width:1.32910001;stroke-opacity:1"
       id="line51"
       y2="244.468"
       x2="235.03"
       y1="272.18301"
       x1="231.437" /><g
       id="g53"
       style="stroke:#0098d8;stroke-opacity:1"><line
         style="fill:none;stroke:#0098d8;stroke-width:1.32910001;stroke-opacity:1"
         id="line55"
         y2="293.73901"
         x2="215"
         y1="272.18301"
         x1="231.437" /><line
         style="fill:none;stroke:#0098d8;stroke-width:1.32910001;stroke-opacity:1"
         id="line57"
         y2="293.73901"
         x2="214.99899"
         y1="315.59"
         x1="231.535" /></g><line
       style="fill:none;stroke:#0098d8;stroke-width:1.32910001;stroke-opacity:1"
       id="line59"
       y2="342.82599"
       x2="235.16"
       y1="315.59"
       x1="231.535" /><line
       style="fill:none;stroke:#0098d8;stroke-width:1.32910001;stroke-opacity:1"
       id="line61"
       y2="342.82599"
       x2="235.16"
       y1="346.03"
       x1="261.92999" /><line
       style="fill:none;stroke:#0098d8;stroke-width:1.32910001;stroke-opacity:1"
       id="line63"
       y2="363.13101"
       x2="284.54599"
       y1="346.03"
       x1="261.92999" /><line
       style="fill:none;stroke:#0098d8;stroke-width:1.32910001;stroke-opacity:1"
       id="line65"
       y2="363.13101"
       x2="284.54599"
       y1="346.32101"
       x1="306.28201" /><line
       style="fill:none;stroke:#0098d8;stroke-width:1.32910001;stroke-opacity:1"
       id="line67"
       y2="342.422"
       x2="333.40399"
       y1="346.32101"
       x1="306.28201" /><line
       style="fill:none;stroke:#0098d8;stroke-width:1.32910001;stroke-opacity:1"
       id="line69"
       y2="342.42099"
       x2="333.40399"
       y1="315.92599"
       x1="336.72299" /><line
       style="fill:none;stroke:#0098d8;stroke-width:1.32910001;stroke-opacity:1"
       id="line71"
       y2="293.702"
       x2="352.88199"
       y1="315.92599"
       x1="336.72299" /><line
       style="fill:none;stroke:#0098d8;stroke-width:1.32910001;stroke-opacity:1"
       id="line73"
       y2="293.702"
       x2="352.88199"
       y1="271.57501"
       x1="337.01401" /><line
       style="fill:none;stroke:#0098d8;stroke-width:1.32910001;stroke-opacity:1"
       id="line75"
       y2="244.33701"
       x2="333.38901"
       y1="271.57501"
       x1="337.01401" /><line
       style="fill:none;stroke:#0098d8;stroke-width:1.32910001;stroke-opacity:1"
       id="line77"
       y2="244.33701"
       x2="333.38901"
       y1="240.85899"
       x1="306.504" /><g
       id="g79"
       style="stroke:#0098d8;stroke-opacity:1"><line
         style="fill:none;stroke:#0098d8;stroke-width:1.32910001;stroke-opacity:1"
         id="line81"
         y2="224.032"
         x2="284.00201"
         y1="240.85899"
         x1="306.504" /><line
         style="fill:none;stroke:#0098d8;stroke-width:1.32910001;stroke-opacity:1"
         id="line83"
         y2="224.033"
         x2="284.00201"
         y1="241.039"
         x1="262.67099" /></g><line
       style="fill:none;stroke:#0098d8;stroke-width:1.32910001;stroke-opacity:1"
       id="line85"
       y2="244.468"
       x2="235.03"
       y1="241.039"
       x1="262.67099" /></g><path
     d="m 581.16293,170.71063 c 0,0 1.15276,1.315 3.35091,1.315 1.8188,0 3.09782,-1.0625 3.09782,-2.53973 0,-2.99045 -4.88124,-2.45005 -4.88124,-4.44939 0,-1.00941 0.88257,-1.40526 1.80112,-1.40526 1.49493,0 2.26952,0.82829 2.26952,0.82829 l 0.55868,-0.93685 c 0,0 -0.88256,-0.99111 -2.79162,-0.99111 -1.63948,0 -3.09841,0.88316 -3.09841,2.50434 0,2.95447 4.88182,2.46776 4.88182,4.44939 0,0.95454 -0.84658,1.44065 -1.81999,1.44065 -1.69315,0 -2.70138,-1.09848 -2.70138,-1.09848 l -0.66723,0.88315 z m -9.42443,1.09849 h 1.22474 v -4.34084 c 0,-0.43243 0.0366,-0.84657 0.14453,-1.22533 0.41415,-1.49492 1.74744,-2.55802 3.29664,-2.55802 1.74743,0 1.96335,1.26132 1.96335,2.68427 v 5.43992 h 1.22473 v -5.76439 c 0,-2.23355 -0.7923,-3.51256 -3.02644,-3.51256 -2.14387,0 -3.29663,1.45895 -3.62051,2.28783 h -0.036 c 0,0 0.036,-0.32447 0.036,-0.72033 v -1.35157 h -1.20704 v 9.06102 z m -10.13767,-4.57564 c 0,-2.05361 1.58519,-3.58453 3.53025,-3.58453 1.94565,0 3.53025,1.53092 3.53025,3.58453 0,2.10788 -1.5846,3.69308 -3.53025,3.69308 -1.94506,0 -3.53025,-1.5852 -3.53025,-3.69308 z m -1.26131,0 c 0,2.73795 2.14388,4.79156 4.79156,4.79156 2.64769,0 4.79157,-2.05361 4.79157,-4.79156 0,-2.68367 -2.14388,-4.70131 -4.79157,-4.70131 -2.64768,0 -4.79156,2.01764 -4.79156,4.70131 z m -15.40296,4.57564 h 1.22473 v -4.28657 c 0,-0.41473 0.0366,-0.82887 0.12625,-1.20703 0.37875,-1.38756 1.49493,-2.66599 2.97275,-2.66599 1.71144,0 1.90908,1.33329 1.90908,2.70198 v 5.4582 h 1.22532 v -4.28657 c 0,-0.48671 0.0359,-0.91913 0.16223,-1.31558 0.34217,-1.33329 1.47664,-2.55803 2.86421,-2.55803 1.65716,0 1.96334,1.22474 1.96334,2.70198 v 5.4582 h 1.22473 v -5.76439 c 0,-2.23355 -0.81059,-3.51255 -3.00874,-3.51255 -1.53091,0 -2.8459,1.04479 -3.33261,2.26953 h -0.036 c -0.26961,-1.49494 -1.13448,-2.26953 -2.80992,-2.26953 -1.40527,0 -2.84592,1.06249 -3.27835,2.28782 h -0.036 c 0,0 0.036,-0.32448 0.036,-0.72033 v -1.35157 h -1.20703 v 9.06043 z m -16.01946,0 h 1.22473 v -4.28657 c 0,-0.41473 0.0366,-0.82887 0.12684,-1.20703 0.37815,-1.38756 1.49493,-2.66599 2.97216,-2.66599 1.71144,0 1.90907,1.33329 1.90907,2.70198 v 5.4582 h 1.22533 v -4.28657 c 0,-0.48671 0.036,-0.91913 0.16223,-1.31558 0.34217,-1.33329 1.47664,-2.55803 2.8642,-2.55803 1.65717,0 1.96335,1.22474 1.96335,2.70198 v 5.4582 h 1.22474 v -5.76439 c 0,-2.23355 -0.81059,-3.51255 -3.00816,-3.51255 -1.5315,0 -2.8465,1.04479 -3.33261,2.26953 h -0.0366 c -0.2696,-1.49494 -1.13447,-2.26953 -2.80992,-2.26953 -1.40526,0 -2.84591,1.06249 -3.27835,2.28782 h -0.036 c 0,0 0.036,-0.32448 0.036,-0.72033 v -1.35157 h -1.20703 v 9.06043 z m -10.13768,-4.57564 c 0,-2.05361 1.5852,-3.58453 3.53026,-3.58453 1.94564,0 3.53083,1.53092 3.53083,3.58453 0,2.10788 -1.58519,3.69308 -3.53083,3.69308 -1.94506,0 -3.53026,-1.5852 -3.53026,-3.69308 z m -1.26131,0 c 0,2.73795 2.14387,4.79156 4.79157,4.79156 2.64768,0 4.79156,-2.05361 4.79156,-4.79156 0,-2.68367 -2.14388,-4.70131 -4.79156,-4.70131 -2.6477,0 -4.79157,2.01764 -4.79157,4.70131 z m -8.98314,0.0543 c 0,2.80993 2.07189,4.73729 4.75557,4.73729 2.30552,0 3.53025,-1.42355 3.53025,-1.42355 l -0.55868,-0.95453 c 0,0 -1.06249,1.279 -2.90019,1.279 -1.99933,0 -3.56683,-1.51321 -3.56683,-3.6388 0,-2.16156 1.54921,-3.6388 3.53085,-3.6388 1.63887,0 2.64827,1.09848 2.64827,1.09848 l 0.63007,-0.91855 c 0,0 -1.09848,-1.2973 -3.31433,-1.2973 -2.66539,9.4e-4 -4.75498,1.96454 -4.75498,4.75676 z"
     id="path87"
     style="fill:#0098d8;fill-opacity:1;stroke:#0098d8;stroke-width:0.17025912;stroke-opacity:1" /><g
     transform="matrix(0.82052627,0,0,0.82052627,203.74301,-106.2397)"
     id="g89"
     style="fill:#0098d8;fill-opacity:1"><path
       d="m 380.003,261.494 h -4.257 l -1.121,3.25 h -1.633 l 4.066,-11.301 h 1.665 l 4.065,11.301 h -1.648 l -1.137,-3.25 z m -2.128,-6.498 c 0,0 -0.256,1.024 -0.448,1.601 l -1.265,3.585 h 3.425 l -1.249,-3.585 c -0.192,-0.576 -0.432,-1.601 -0.432,-1.601 h -0.031 z"
       id="path91"
       style="fill:#0098d8;fill-opacity:1" /><path
       d="m 385.553,253.443 h 1.569 l 5.026,7.347 c 0.416,0.608 0.944,1.633 0.944,1.633 h 0.032 c 0,0 -0.112,-1.008 -0.112,-1.633 v -7.347 h 1.584 v 11.301 h -1.552 l -5.042,-7.331 c -0.417,-0.624 -0.945,-1.648 -0.945,-1.648 h -0.032 c 0,0 0.112,1.008 0.112,1.648 v 7.331 h -1.584 v -11.301 z"
       id="path93"
       style="fill:#0098d8;fill-opacity:1" /><path
       d="m 405.905,253.443 h 1.584 v 11.301 h -1.584 v -11.301 z"
       id="path95"
       style="fill:#0098d8;fill-opacity:1" /><path
       d="m 411.665,253.443 h 1.569 l 5.026,7.347 c 0.416,0.608 0.944,1.633 0.944,1.633 h 0.032 c 0,0 -0.112,-1.008 -0.112,-1.633 v -7.347 h 1.585 v 11.301 h -1.553 l -5.042,-7.331 c -0.417,-0.624 -0.945,-1.648 -0.945,-1.648 h -0.032 c 0,0 0.112,1.008 0.112,1.648 v 7.331 h -1.584 v -11.301 z"
       id="path97"
       style="fill:#0098d8;fill-opacity:1" /><path
       d="m 424.882,253.443 h 1.584 v 11.301 h -1.584 v -11.301 z"
       id="path99"
       style="fill:#0098d8;fill-opacity:1" /><path
       d="m 433.058,254.82 h -3.873 v -1.377 h 9.332 v 1.377 h -3.874 v 9.924 h -1.585 v -9.924 z"
       id="path101"
       style="fill:#0098d8;fill-opacity:1" /><path
       d="m 441.233,253.443 h 1.584 v 11.301 h -1.584 v -11.301 z"
       id="path103"
       style="fill:#0098d8;fill-opacity:1" /><path
       d="m 452.595,261.494 h -4.258 l -1.12,3.25 h -1.633 l 4.065,-11.301 h 1.665 l 4.065,11.301 h -1.648 l -1.136,-3.25 z m -2.129,-6.498 c 0,0 -0.256,1.024 -0.448,1.601 l -1.265,3.585 h 3.426 l -1.248,-3.585 c -0.192,-0.576 -0.433,-1.601 -0.433,-1.601 h -0.032 z"
       id="path105"
       style="fill:#0098d8;fill-opacity:1" /><path
       d="m 460.561,254.82 h -3.873 v -1.377 h 9.332 v 1.377 h -3.874 v 9.924 h -1.585 v -9.924 z"
       id="path107"
       style="fill:#0098d8;fill-opacity:1" /><path
       d="m 468.735,253.443 h 1.585 v 11.301 h -1.585 v -11.301 z"
       id="path109"
       style="fill:#0098d8;fill-opacity:1" /><path
       d="m 473.055,253.443 h 1.713 l 2.802,7.987 c 0.208,0.608 0.432,1.553 0.432,1.553 h 0.032 c 0,0 0.224,-0.944 0.432,-1.553 l 2.834,-7.987 h 1.681 l -4.162,11.301 h -1.585 l -4.179,-11.301 z"
       id="path111"
       style="fill:#0098d8;fill-opacity:1" /><path
       d="m 485.712,253.443 h 6.562 v 1.377 h -4.979 v 3.537 h 4.05 v 1.376 h -4.05 v 3.634 h 5.25 v 1.376 h -6.834 v -11.3 z"
       id="path113"
       style="fill:#0098d8;fill-opacity:1" /><path
       d="m 508.162,253.251 c 3.265,0 5.794,2.513 5.794,5.762 0,3.33 -2.529,5.922 -5.794,5.922 -3.266,0 -5.811,-2.593 -5.811,-5.922 10e-4,-3.249 2.545,-5.762 5.811,-5.762 z m 0,10.228 c 2.305,0 4.161,-1.92 4.161,-4.466 0,-2.465 -1.856,-4.322 -4.161,-4.322 -2.306,0 -4.178,1.857 -4.178,4.322 0,2.546 1.872,4.466 4.178,4.466 z"
       id="path115"
       style="fill:#0098d8;fill-opacity:1" /><path
       d="m 517.358,253.443 h 6.227 v 1.377 h -4.642 v 3.713 h 3.954 v 1.376 h -3.954 v 4.834 h -1.585 v -11.3 z"
       id="path117"
       style="fill:#0098d8;fill-opacity:1" /></g></svg>