<?xml version="1.0" encoding="UTF-8" standalone="no"?>
<svg
   xmlns:dc="http://purl.org/dc/elements/1.1/"
   xmlns:cc="http://creativecommons.org/ns#"
   xmlns:rdf="http://www.w3.org/1999/02/22-rdf-syntax-ns#"
   xmlns:svg="http://www.w3.org/2000/svg"
   xmlns="http://www.w3.org/2000/svg"
   xmlns:sodipodi="http://sodipodi.sourceforge.net/DTD/sodipodi-0.dtd"
   xmlns:inkscape="http://www.inkscape.org/namespaces/inkscape"
   version="1.1"
   x="0px"
   y="0px"
   viewBox="0 0 100 100"
   xml:space="preserve"
   id="svg2"
   inkscape:version="0.48.4 r9939"
   width="100%"
   height="100%"
   sodipodi:docname="noun_283731_cc.svg"><metadata
     id="metadata22"><rdf:RDF><cc:Work
         rdf:about=""><dc:format>image/svg+xml</dc:format><dc:type
           rdf:resource="http://purl.org/dc/dcmitype/StillImage" /><dc:title /></cc:Work></rdf:RDF></metadata><defs
     id="defs20" /><sodipodi:namedview
     pagecolor="#ffffff"
     bordercolor="#666666"
     borderopacity="1"
     objecttolerance="10"
     gridtolerance="10"
     guidetolerance="10"
     inkscape:pageopacity="0"
     inkscape:pageshadow="2"
     inkscape:window-width="778"
     inkscape:window-height="480"
     id="namedview18"
     showgrid="false"
     inkscape:zoom="1.888"
     inkscape:cx="62.259185"
     inkscape:cy="62.5"
     inkscape:window-x="1034"
     inkscape:window-y="257"
     inkscape:window-maximized="0"
     inkscape:current-layer="svg2" /><g
     id="g4"
     transform="matrix(0.8940678,0,0,0.8940678,4.7669492,3.6016949)"
     style="fill:#8f8f8f;fill-opacity:1;stroke:#8f8f8f;stroke-opacity:1;stroke-width:0.77622749;stroke-miterlimit:4;stroke-dasharray:none"><g
       id="g6"
       style="fill:#8f8f8f;fill-opacity:1;stroke:#8f8f8f;stroke-opacity:1;stroke-width:0.77622749;stroke-miterlimit:4;stroke-dasharray:none"><path
         d="m 60,28 c 0,-5.5 -4.5,-10 -10,-10 -5.5,0 -10,4.5 -10,10 0,5.5 4.5,10 10,10 5.5,0 10,-4.5 10,-10 z m -16,0 c 0,-3.3 2.7,-6 6,-6 3.3,0 6,2.7 6,6 0,3.3 -2.7,6 -6,6 -3.3,0 -6,-2.7 -6,-6 z"
         id="path8"
         inkscape:connector-curvature="0"
         style="fill:#8f8f8f;fill-opacity:1;stroke:#8f8f8f;stroke-opacity:1;stroke-width:0.77622749;stroke-miterlimit:4;stroke-dasharray:none" /><path
         d="m 50,82 c 0.7,0 1.3,-0.3 1.6,-0.9 C 52.6,79.7 76,46.2 76,26.8 76,13.1 64.3,2 50,2 35.7,2 24,13.1 24,26.8 24,46.2 47.4,79.7 48.4,81.1 48.7,81.7 49.3,82 50,82 z M 50,6 C 62.1,6 72,15.3 72,26.8 72,42.1 55.4,68.4 50,76.4 44.6,68.3 28,42.1 28,26.8 28,15.3 37.9,6 50,6 z"
         id="path10"
         inkscape:connector-curvature="0"
         style="fill:#8f8f8f;fill-opacity:1;stroke:#8f8f8f;stroke-opacity:1;stroke-width:0.77622749;stroke-miterlimit:4;stroke-dasharray:none" /><path
         d="m 68.4,70.1 c -1,-0.4 -2.2,0.1 -2.6,1.1 -0.4,1 0.1,2.2 1.1,2.6 5.7,2.2 9,5.5 9,8.6 C 76,89.3 62.3,94 50,94 37.7,94 24,89.3 24,82.5 c 0,-3.2 3.4,-6.4 9,-8.6 1,-0.4 1.5,-1.6 1.1,-2.6 -0.4,-1 -1.6,-1.5 -2.6,-1.1 C 24.2,73 20,77.5 20,82.5 20,91.2 33.2,98 50,98 66.8,98 80,91.2 80,82.5 80,77.5 75.8,73 68.4,70.1 z"
         id="path12"
         inkscape:connector-curvature="0"
         style="fill:#8f8f8f;fill-opacity:1;stroke:#8f8f8f;stroke-opacity:1;stroke-width:0.77622749;stroke-miterlimit:4;stroke-dasharray:none" /></g></g></svg>