<?xml version="1.0" encoding="UTF-8" standalone="no"?>
<svg
   xmlns:dc="http://purl.org/dc/elements/1.1/"
   xmlns:cc="http://creativecommons.org/ns#"
   xmlns:rdf="http://www.w3.org/1999/02/22-rdf-syntax-ns#"
   xmlns:svg="http://www.w3.org/2000/svg"
   xmlns="http://www.w3.org/2000/svg"
   xmlns:sodipodi="http://sodipodi.sourceforge.net/DTD/sodipodi-0.dtd"
   xmlns:inkscape="http://www.inkscape.org/namespaces/inkscape"
   version="1.1"
   x="0px"
   y="0px"
   viewBox="0 0 100 100"
   enable-background="new 0 0 100 100"
   xml:space="preserve"
   id="svg2"
   inkscape:version="0.48.4 r9939"
   width="100%"
   height="100%"
   sodipodi:docname="noun_168261_cc.svg"><metadata
     id="metadata14"><rdf:RDF><cc:Work
         rdf:about=""><dc:format>image/svg+xml</dc:format><dc:type
           rdf:resource="http://purl.org/dc/dcmitype/StillImage" /><dc:title /></cc:Work></rdf:RDF></metadata><defs
     id="defs12" /><sodipodi:namedview
     pagecolor="#ffffff"
     bordercolor="#666666"
     borderopacity="1"
     objecttolerance="10"
     gridtolerance="10"
     guidetolerance="10"
     inkscape:pageopacity="0"
     inkscape:pageshadow="2"
     inkscape:window-width="1262"
     inkscape:window-height="804"
     id="namedview10"
     showgrid="false"
     inkscape:zoom="2.6700352"
     inkscape:cx="61.791005"
     inkscape:cy="68.671316"
     inkscape:window-x="308"
     inkscape:window-y="169"
     inkscape:window-maximized="0"
     inkscape:current-layer="svg2" /><path
     d="M 77.606762,21.43438 C 77.198101,19.064148 75.972119,17.020845 74.010548,15.6314 l -4.168337,-3.105822 c -1.55291,-1.14425 -3.351017,-1.716374 -5.230856,-1.716374 -2.860624,0 -5.557784,1.389446 -7.274159,3.677946 L 22.110655,63.199491 c -0.08174,0.08173 -0.08174,0.163465 -0.163465,0.245196 0,0 0,0.08173 0,0.08173 0,0.08173 -0.08173,0.163464 -0.08173,0.245196 0,0 0,0 0,0.08173 l -1.716375,20.269565 c 0,0.408661 0.163465,0.817321 0.490393,1.062518 0.245196,0.163464 0.490393,0.245196 0.735589,0.245196 0.163464,0 0.326929,0 0.490393,-0.08174 L 40.255186,77.17567 c 0.163464,-0.08173 0.408661,-0.245196 0.490393,-0.40866 l 0.08173,-0.08174 c 0,0 0,0 0,0 0,0 0,0 0,0 L 76.053851,28.054681 c 1.389447,-1.879838 1.961571,-4.25007 1.552911,-6.620301 z M 39.519595,74.31506 24.807814,63.689884 56.519875,19.88147 71.231656,30.506644 39.519595,74.31506 z m -13.240603,6.375104 -3.10582,-2.288498 1.062517,-12.259819 13.240603,9.562659 -11.1973,4.985658 z m -3.432749,0.572125 0.817322,0.572125 -0.899054,0.40866 0.08173,-0.980785 z M 74.092281,26.665235 72.702835,28.545074 57.991053,17.919898 59.380499,16.04006 c 1.225982,-1.716375 3.187553,-2.69716 5.312588,-2.69716 1.389446,0 2.69716,0.40866 3.841409,1.225981 l 4.168339,3.024089 c 1.389446,0.980785 2.370231,2.533696 2.615427,4.25007 0.163464,1.634643 -0.245196,3.43275 -1.225981,4.822195 z"
     id="path4"
     inkscape:connector-curvature="0"
     style="fill:#8f8f8f;fill-opacity:1;stroke:#8f8f8f;stroke-width:1.56157041;stroke-miterlimit:4;stroke-opacity:1;stroke-dasharray:none" /></svg>