<?xml version="1.0" encoding="UTF-8" standalone="no"?>
<svg
   xmlns:dc="http://purl.org/dc/elements/1.1/"
   xmlns:cc="http://creativecommons.org/ns#"
   xmlns:rdf="http://www.w3.org/1999/02/22-rdf-syntax-ns#"
   xmlns:svg="http://www.w3.org/2000/svg"
   xmlns="http://www.w3.org/2000/svg"
   xmlns:sodipodi="http://sodipodi.sourceforge.net/DTD/sodipodi-0.dtd"
   xmlns:inkscape="http://www.inkscape.org/namespaces/inkscape"
   version="1.1"
   x="0px"
   y="0px"
   viewBox="0 0 100 100"
   enable-background="new 0 0 100 100"
   xml:space="preserve"
   id="svg2"
   inkscape:version="0.48.4 r9939"
   width="100%"
   height="100%"
   sodipodi:docname="noun_116760_cc.svg"><metadata
     id="metadata16"><rdf:RDF><cc:Work
         rdf:about=""><dc:format>image/svg+xml</dc:format><dc:type
           rdf:resource="http://purl.org/dc/dcmitype/StillImage" /></cc:Work></rdf:RDF></metadata><defs
     id="defs14" /><sodipodi:namedview
     pagecolor="#ffffff"
     bordercolor="#666666"
     borderopacity="1"
     objecttolerance="10"
     gridtolerance="10"
     guidetolerance="10"
     inkscape:pageopacity="0"
     inkscape:pageshadow="2"
     inkscape:window-width="1272"
     inkscape:window-height="849"
     id="namedview12"
     showgrid="false"
     inkscape:zoom="1.888"
     inkscape:cx="-48.252119"
     inkscape:cy="62.5"
     inkscape:window-x="1967"
     inkscape:window-y="99"
     inkscape:window-maximized="0"
     inkscape:current-layer="svg2" /><g
     id="g4"
     transform="translate(-0.52966102,0.42372881)"
     style="stroke:#8f8f8f;stroke-opacity:1;stroke-width:1;stroke-miterlimit:4;stroke-dasharray:none"><path
       d="m 87,32 c -4.4,0 -8,3.6 -8,8 0,0 0,0.1 0,0.1 L 65.8,43.7 C 63.2,37.4 57.1,33 50,33 46,33 42.4,34.4 39.5,36.7 L 30.2,27.4 C 31.9,25 33,22.1 33,19 33,11.3 26.7,5 19,5 11.3,5 5,11.3 5,19 c 0,7.7 6.3,14 14,14 3.1,0 6,-1.1 8.4,-2.8 l 9.3,9.3 C 34.4,42.4 33,46 33,50 c 0,5.7 2.8,10.7 7,13.7 l -5.5,9.8 C 33.4,73.2 32.2,73 31,73 c -6.1,0 -11,4.9 -11,11 0,6.1 4.9,11 11,11 6.1,0 11,-4.9 11,-11 0,-3.4 -1.6,-6.4 -4,-8.5 l 5.5,-9.8 c 2,0.8 4.2,1.3 6.5,1.3 9.4,0 17,-7.6 17,-17 0,-0.8 -0.1,-1.7 -0.2,-2.5 l 13.3,-3.6 c 1.4,2.4 4,4.1 6.9,4.1 4.4,0 8,-3.6 8,-8 0,-4.4 -3.6,-8 -8,-8 z M 31,91 c -3.9,0 -7,-3.1 -7,-7 0,-3.9 3.1,-7 7,-7 3.9,0 7,3.1 7,7 0,3.9 -3.1,7 -7,7 z M 9,19 C 9,13.5 13.5,9 19,9 24.5,9 29,13.5 29,19 29,24.5 24.5,29 19,29 13.5,29 9,24.5 9,19 z m 41,44 c -7.2,0 -13,-5.8 -13,-13 0,-7.2 5.8,-13 13,-13 7.2,0 13,5.8 13,13 0,7.2 -5.8,13 -13,13 z M 87,44 c -2.2,0 -4,-1.8 -4,-4 0,-2.2 1.8,-4 4,-4 2.2,0 4,1.8 4,4 0,2.2 -1.8,4 -4,4 z"
       id="path6"
       inkscape:connector-curvature="0"
       style="fill:#8f8f8f;stroke:#8f8f8f;stroke-opacity:1;stroke-width:1;stroke-miterlimit:4;stroke-dasharray:none" /></g></svg>